<?xml version="1.0" encoding="utf-8"?>
<!-- Generator: Adobe Illustrator 25.4.1, SVG Export Plug-In . SVG Version: 6.00 Build 0)  -->
<svg version="1.1" xmlns="http://www.w3.org/2000/svg" xmlns:xlink="http://www.w3.org/1999/xlink" x="0px" y="0px"
	 viewBox="0 0 170 175" enable-background="new 0 0 170 175" xml:space="preserve">
<g id="Hintergrund">
	<rect fill="#FFFFFF" width="170" height="175"/>
</g>
<g id="Förderzusatz_en">
	<g>
		<path d="M26.961,22.341c-0.295-0.19-0.664-0.327-1.065-0.327c-0.727,0-1.212,0.39-1.212,1.097c0,0.664,0.464,0.906,0.844,1.117
			l0.97,0.548c0.917,0.517,1.55,1.001,1.55,2.024c0,1.233-0.875,2.118-2.414,2.118c-0.97,0-1.771-0.379-1.866-0.443
			c-0.021-0.274-0.053-1.012-0.053-1.159c0-0.38,0.106-0.538,0.379-0.538c0.095,0,0.179,0.021,0.243,0.052l0.253,1.128
			c0.222,0.169,0.664,0.337,1.118,0.337c0.875,0,1.317-0.474,1.317-1.149c0-0.717-0.485-0.949-1.381-1.465l-0.654-0.379
			c-0.706-0.411-1.297-0.896-1.297-1.95c0-1.223,0.991-1.961,2.33-1.961c0.938,0,1.433,0.253,1.697,0.4c0,0,0.042,0.917,0.042,1.033
			c0,0.327-0.095,0.527-0.369,0.527c-0.085,0-0.169-0.011-0.232-0.032L26.961,22.341z"/>
		<path d="M33.706,28.201l0.77,0.106c0,0,0.011,0.042,0.011,0.084c0,0.189-0.137,0.316-0.39,0.337l-1.391,0.126v-0.696h-0.021
			c-0.169,0.221-0.633,0.759-1.56,0.759c-1.128,0-1.655-0.664-1.655-1.908v-2.688l-0.749-0.116c0,0-0.011-0.063-0.011-0.105
			c0-0.179,0.137-0.306,0.39-0.327l1.433-0.137v3.321c0,0.959,0.506,1.18,0.97,1.18c0.538,0,0.896-0.232,1.139-0.506v-3.31
			l-0.749-0.116c0,0-0.011-0.063-0.011-0.105c0-0.179,0.137-0.306,0.39-0.327l1.433-0.137V28.201z"/>
		<path d="M36.731,24.323h0.031c0.243-0.306,0.685-0.749,1.539-0.749c1.107,0,1.95,0.822,1.95,2.424c0,2.003-1.17,2.878-2.709,2.878
			c-0.306,0-0.548-0.042-0.749-0.095v1.55l0.611,0.137c0.105,0.022,0.147,0.053,0.147,0.137c0,0.106-0.073,0.264-0.105,0.295h-2.403
			c0,0-0.011-0.063-0.011-0.095c0-0.189,0.127-0.284,0.327-0.348l0.369-0.126v-6.009l-0.748-0.116c0,0-0.011-0.063-0.011-0.105
			c0-0.179,0.137-0.306,0.39-0.327l1.433-0.137L36.731,24.323z M36.794,27.98c0.19,0.137,0.474,0.274,0.865,0.274
			c0.917,0,1.486-0.622,1.486-2.108c0-1.212-0.58-1.771-1.317-1.771c-0.506,0-0.822,0.222-1.033,0.411V27.98z"/>
		<path d="M42.738,24.323h0.031c0.243-0.306,0.685-0.749,1.539-0.749c1.107,0,1.95,0.822,1.95,2.424c0,2.003-1.17,2.878-2.709,2.878
			c-0.306,0-0.548-0.042-0.749-0.095v1.55l0.611,0.137c0.105,0.022,0.147,0.053,0.147,0.137c0,0.106-0.073,0.264-0.105,0.295h-2.403
			c0,0-0.011-0.063-0.011-0.095c0-0.189,0.127-0.284,0.327-0.348l0.369-0.126v-6.009l-0.748-0.116c0,0-0.011-0.063-0.011-0.105
			c0-0.179,0.137-0.306,0.39-0.327l1.433-0.137L42.738,24.323z M42.801,27.98c0.19,0.137,0.474,0.274,0.865,0.274
			c0.917,0,1.486-0.622,1.486-2.108c0-1.212-0.58-1.771-1.317-1.771c-0.506,0-0.822,0.222-1.033,0.411V27.98z"/>
		<path d="M52.161,26.199c0,1.824-1.275,2.72-2.561,2.72c-1.318,0-2.403-0.843-2.403-2.614c0-1.782,1.265-2.73,2.604-2.73
			C51.117,23.574,52.161,24.365,52.161,26.199z M48.324,26.241c0,1.413,0.569,2.045,1.349,2.045c0.78,0,1.36-0.611,1.36-2.024
			c0-1.412-0.58-2.066-1.36-2.066C48.893,24.196,48.324,24.818,48.324,26.241z"/>
		<path d="M54.711,24.544h0.032c0.221-0.358,0.611-0.97,1.296-0.97c0.495,0,0.728,0.232,0.728,0.559c0,0.232-0.106,0.432-0.19,0.538
			c-0.084-0.042-0.348-0.158-0.706-0.158c-0.58,0-0.875,0.232-1.096,0.538v3.173l0.759,0.137c0.106,0.021,0.148,0.053,0.148,0.137
			c0,0.105-0.084,0.263-0.105,0.295h-2.551c0,0-0.011-0.063-0.011-0.095c0-0.189,0.127-0.274,0.327-0.348l0.369-0.127v-3.9
			l-0.749-0.116c0,0-0.011-0.063-0.011-0.105c0-0.179,0.137-0.306,0.39-0.327l1.433-0.137L54.711,24.544z"/>
		<path d="M60.413,24.28h-1.444v3.078c0,0.474,0.148,0.864,0.675,0.864c0.411,0,0.749-0.179,0.833-0.253
			c0.053,0.084,0.095,0.242,0.095,0.348c0,0.105-0.369,0.601-1.328,0.601c-0.959,0-1.339-0.559-1.339-1.37V24.28h-0.791
			c0,0-0.011-0.064-0.011-0.095c0-0.2,0.127-0.316,0.327-0.358l0.517-0.127l0.242-1.423h0.78V23.7h1.56L60.413,24.28z"/>
		<path d="M62.31,26.262c0.01,1.307,0.632,1.919,1.539,1.919c0.675,0,1.054-0.263,1.318-0.485c0.105,0.084,0.158,0.263,0.158,0.358
			c0,0.263-0.696,0.864-1.866,0.864c-1.296,0-2.266-0.738-2.266-2.572c0-1.834,1.107-2.772,2.309-2.772
			c1.191,0,1.792,0.728,1.792,1.782c0,0.274-0.053,0.643-0.126,0.906H62.31z M64.155,25.703c0.021-0.095,0.052-0.274,0.052-0.453
			c0-0.58-0.211-1.076-0.822-1.076c-0.622,0-0.991,0.495-1.065,1.528H64.155z"/>
		<path d="M70.816,28.201l0.769,0.106c0,0,0.011,0.042,0.011,0.084c0,0.189-0.137,0.316-0.39,0.337l-1.391,0.126V28.17h-0.031
			c-0.232,0.327-0.675,0.748-1.497,0.748c-1.033,0-2.003-0.664-2.003-2.498c0-1.96,1.37-2.846,2.72-2.846
			c0.306,0,0.569,0.053,0.749,0.095v-1.845l-0.749-0.105c0,0-0.01-0.074-0.01-0.116c0-0.179,0.137-0.306,0.39-0.327l1.434-0.137
			V28.201z M69.751,24.523c-0.158-0.148-0.443-0.316-0.886-0.316c-0.854,0-1.486,0.611-1.486,2.003c0,1.36,0.59,1.908,1.297,1.908
			c0.611,0,0.938-0.284,1.075-0.443V24.523z"/>
		<path d="M75.969,24.291h0.032c0.263-0.316,0.738-0.717,1.528-0.717c0.991,0,1.94,0.664,1.94,2.477
			c0,2.034-1.349,2.867-2.783,2.867c-0.948,0-1.518-0.242-1.792-0.4v-6.693l-0.738-0.105c0,0-0.011-0.074-0.011-0.116
			c0-0.179,0.137-0.306,0.39-0.327l1.433-0.137V24.291z M75.969,27.991c0.19,0.137,0.485,0.284,0.917,0.284
			c0.917,0,1.486-0.611,1.486-2.035c0-1.402-0.685-1.845-1.36-1.845c-0.485,0-0.822,0.19-1.044,0.432V27.991z"/>
		<path d="M84.897,24.238l-1.729,4.596c-0.611,1.623-1.339,2.193-2.235,2.193c-0.495,0-0.706-0.232-0.706-0.59
			c0-0.2,0.074-0.348,0.148-0.443c0.126,0.052,0.306,0.095,0.506,0.095c0.633,0,1.223-0.295,1.571-1.128l-2.002-4.744l-0.506-0.158
			c0,0-0.011-0.073-0.011-0.105c0-0.168,0.137-0.253,0.295-0.253h1.972c0.084,0,0.126,0.043,0.126,0.106
			c0,0.063-0.053,0.211-0.074,0.253l-0.59,0.158l1.244,3.437h0.032l1.202-3.426l-0.791-0.169c0,0-0.01-0.073-0.01-0.105
			c0-0.168,0.137-0.253,0.295-0.253h1.708c0.084,0,0.126,0.043,0.126,0.106c0,0.063-0.052,0.211-0.073,0.253L84.897,24.238z"/>
		<path d="M86.794,24.87c-0.37,0-0.654-0.253-0.654-0.643c0-0.4,0.284-0.654,0.654-0.654c0.369,0,0.663,0.253,0.663,0.654
			C87.457,24.618,87.162,24.87,86.794,24.87z M86.794,28.929c-0.37,0-0.654-0.253-0.654-0.643c0-0.4,0.284-0.653,0.654-0.653
			c0.369,0,0.663,0.253,0.663,0.653C87.457,28.676,87.162,28.929,86.794,28.929z"/>
	</g>
	<g>
		<path d="M28.431,138.296c0,1.835-1.282,2.735-2.576,2.735c-1.325,0-2.417-0.848-2.417-2.628c0-1.792,1.272-2.746,2.618-2.746
			C27.382,135.658,28.431,136.452,28.431,138.296z M24.573,138.339c0,1.421,0.572,2.056,1.357,2.056
			c0.784,0,1.367-0.614,1.367-2.035c0-1.421-0.583-2.078-1.367-2.078C25.145,136.283,24.573,136.908,24.573,138.339z"/>
		<path d="M34.376,140.332l0.626,0.137c0.106,0.021,0.148,0.053,0.148,0.137c0,0.106-0.085,0.265-0.106,0.297h-2.406
			c0,0-0.01-0.064-0.01-0.096c0-0.19,0.127-0.286,0.328-0.349l0.35-0.127v-2.682c0-0.901-0.509-1.177-1.028-1.177
			c-0.604,0-0.996,0.286-1.219,0.466v3.393l0.604,0.137c0.106,0.021,0.149,0.053,0.149,0.137c0,0.106-0.085,0.265-0.106,0.297
			h-2.406c0,0-0.011-0.064-0.011-0.096c0-0.19,0.127-0.275,0.329-0.349l0.371-0.127v-3.922l-0.753-0.117
			c0,0-0.011-0.064-0.011-0.106c0-0.18,0.138-0.308,0.392-0.328l1.441-0.138l-0.064,0.742h0.032
			c0.286-0.308,0.763-0.805,1.738-0.805c1.039,0,1.611,0.667,1.611,1.865V140.332z"/>
		<path d="M41.138,136.367h-1.452v3.096c0,0.477,0.149,0.869,0.678,0.869c0.414,0,0.753-0.181,0.837-0.254
			c0.053,0.085,0.096,0.243,0.096,0.349s-0.371,0.604-1.336,0.604c-0.964,0-1.346-0.562-1.346-1.378v-3.286H37.82
			c0,0-0.011-0.064-0.011-0.095c0-0.201,0.127-0.318,0.329-0.36l0.519-0.128l0.244-1.43h0.784v1.43h1.569L41.138,136.367z"/>
		<path d="M43.501,136.42h0.021c0.212-0.254,0.721-0.762,1.632-0.762c1.06,0,1.664,0.625,1.664,1.865v2.81l0.614,0.137
			c0.106,0.021,0.149,0.053,0.149,0.137c0,0.106-0.085,0.265-0.106,0.297H45.07c0,0-0.01-0.064-0.01-0.096
			c0-0.19,0.127-0.286,0.328-0.349l0.35-0.127v-2.682c0-0.901-0.488-1.177-1.028-1.177c-0.657,0-1.007,0.286-1.209,0.487v3.371
			l0.594,0.137c0.106,0.021,0.149,0.053,0.149,0.137c0,0.106-0.074,0.265-0.106,0.297h-2.406c0,0-0.011-0.064-0.011-0.096
			c0-0.19,0.127-0.286,0.329-0.349l0.371-0.127v-6.434l-0.752-0.106c0,0-0.011-0.074-0.011-0.117c0-0.18,0.138-0.308,0.392-0.328
			l1.452-0.138V136.42z"/>
		<path d="M49.352,138.36c0.01,1.314,0.636,1.929,1.547,1.929c0.678,0,1.06-0.264,1.325-0.487c0.106,0.085,0.159,0.265,0.159,0.361
			c0,0.264-0.7,0.868-1.876,0.868c-1.304,0-2.279-0.742-2.279-2.587c0-1.844,1.113-2.787,2.322-2.787
			c1.198,0,1.802,0.731,1.802,1.792c0,0.275-0.053,0.645-0.127,0.911H49.352z M51.207,137.798c0.021-0.095,0.053-0.276,0.053-0.455
			c0-0.583-0.212-1.081-0.827-1.081c-0.626,0-0.996,0.498-1.071,1.537H51.207z"/>
		<path d="M57.035,136.378h0.032c0.265-0.318,0.742-0.721,1.537-0.721c0.996,0,1.951,0.667,1.951,2.491
			c0,2.046-1.357,2.883-2.799,2.883c-0.954,0-1.526-0.244-1.802-0.403v-6.73l-0.742-0.106c0,0-0.011-0.074-0.011-0.117
			c0-0.18,0.138-0.308,0.392-0.328l1.441-0.138V136.378z M57.035,140.099c0.191,0.137,0.488,0.286,0.923,0.286
			c0.922,0,1.494-0.615,1.494-2.046c0-1.409-0.689-1.855-1.367-1.855c-0.488,0-0.827,0.191-1.05,0.435V140.099z"/>
		<path d="M65.228,139.77c0,0.424,0.159,0.551,0.339,0.551c0.244,0,0.371-0.127,0.403-0.18c0.053,0.074,0.127,0.223,0.127,0.318
			c0,0.138-0.276,0.55-0.965,0.55c-0.487,0-0.795-0.211-0.89-0.741h-0.021c-0.117,0.201-0.509,0.763-1.389,0.763
			c-0.805,0-1.378-0.55-1.378-1.388c0-1.135,1.24-1.558,2.428-1.558h0.276v-0.478c0-0.964-0.255-1.346-0.912-1.346
			c-0.244,0-0.456,0.073-0.541,0.105c-0.096,0.201-0.18,0.572-0.233,0.933c0,0-0.159,0.01-0.244,0.01
			c-0.36,0-0.562-0.17-0.562-0.498c0-0.658,0.869-1.155,1.855-1.155c1.166,0,1.706,0.636,1.706,1.833V139.77z M63.914,138.614
			c-0.859,0.043-1.346,0.35-1.346,0.913c0,0.444,0.255,0.741,0.689,0.741c0.435,0,0.764-0.286,0.901-0.455v-1.208L63.914,138.614z"
			/>
		<path d="M69.086,136.442c-0.117-0.085-0.382-0.212-0.7-0.212c-0.35,0-0.71,0.149-0.71,0.593c0,0.467,0.498,0.743,1.007,1.04
			c0.636,0.381,1.314,0.795,1.314,1.643c0,0.868-0.721,1.526-1.887,1.526c-0.594,0-1.123-0.18-1.346-0.318
			c-0.043-0.264-0.074-0.541-0.074-0.816c0-0.424,0.117-0.594,0.435-0.594c0.053,0,0.138,0.01,0.138,0.01l0.223,0.901
			c0.106,0.073,0.413,0.212,0.721,0.212c0.519,0,0.848-0.201,0.848-0.646c0-0.455-0.509-0.71-0.986-1.007
			c-0.647-0.414-1.293-0.827-1.293-1.739c0-0.826,0.721-1.378,1.738-1.378c0.615,0,1.05,0.212,1.24,0.391
			c0.021,0.149,0.043,0.371,0.043,0.583c0,0.371-0.074,0.615-0.456,0.615c-0.053,0-0.127-0.011-0.127-0.011L69.086,136.442z"/>
		<path d="M72.615,140.332l0.626,0.137c0.106,0.021,0.148,0.053,0.148,0.137c0,0.106-0.085,0.265-0.106,0.297h-2.428
			c0,0-0.011-0.064-0.011-0.096c0-0.19,0.127-0.275,0.329-0.349l0.371-0.127v-3.922l-0.753-0.117c0,0-0.011-0.064-0.011-0.106
			c0-0.18,0.138-0.308,0.392-0.328l1.441-0.138V140.332z M72.074,134.672c-0.392,0-0.689-0.265-0.689-0.678
			c0-0.404,0.296-0.678,0.689-0.678c0.382,0,0.7,0.275,0.7,0.678C72.774,134.406,72.456,134.672,72.074,134.672z"/>
		<path d="M76.547,136.442c-0.117-0.085-0.382-0.212-0.7-0.212c-0.35,0-0.71,0.149-0.71,0.593c0,0.467,0.498,0.743,1.007,1.04
			c0.636,0.381,1.314,0.795,1.314,1.643c0,0.868-0.721,1.526-1.887,1.526c-0.594,0-1.123-0.18-1.346-0.318
			c-0.043-0.264-0.074-0.541-0.074-0.816c0-0.424,0.117-0.594,0.435-0.594c0.053,0,0.138,0.01,0.138,0.01l0.223,0.901
			c0.106,0.073,0.413,0.212,0.721,0.212c0.519,0,0.848-0.201,0.848-0.646c0-0.455-0.509-0.71-0.986-1.007
			c-0.646-0.414-1.293-0.827-1.293-1.739c0-0.826,0.721-1.378,1.738-1.378c0.615,0,1.05,0.212,1.24,0.391
			c0.021,0.149,0.042,0.371,0.042,0.583c0,0.371-0.074,0.615-0.455,0.615c-0.053,0-0.127-0.011-0.127-0.011L76.547,136.442z"/>
		<path d="M85.694,138.296c0,1.835-1.282,2.735-2.576,2.735c-1.325,0-2.417-0.848-2.417-2.628c0-1.792,1.272-2.746,2.618-2.746
			C84.645,135.658,85.694,136.452,85.694,138.296z M81.836,138.339c0,1.421,0.572,2.056,1.357,2.056
			c0.784,0,1.368-0.614,1.368-2.035c0-1.421-0.583-2.078-1.368-2.078C82.408,136.283,81.836,136.908,81.836,138.339z"/>
		<path d="M89.636,136.367h-1.294v3.965l0.721,0.137c0.106,0.021,0.149,0.053,0.149,0.137c0,0.106-0.074,0.265-0.106,0.297h-2.523
			c0,0-0.01-0.064-0.01-0.096c0-0.19,0.127-0.275,0.328-0.349l0.36-0.127v-3.965h-0.784c0,0-0.011-0.064-0.011-0.095
			c0-0.201,0.128-0.308,0.329-0.36l0.466-0.128v-0.105c0-1.707,1.039-2.533,1.951-2.533c0.53,0,0.742,0.233,0.742,0.561
			c0,0.265-0.159,0.414-0.318,0.499c-0.096-0.105-0.372-0.307-0.7-0.307c-0.455,0-0.614,0.254-0.614,0.879
			c0,0.329,0.021,1.007,0.021,1.007h1.41L89.636,136.367z"/>
		<path d="M96.398,139.77c0,0.424,0.159,0.551,0.34,0.551c0.244,0,0.371-0.127,0.403-0.18c0.053,0.074,0.127,0.223,0.127,0.318
			c0,0.138-0.276,0.55-0.964,0.55c-0.487,0-0.795-0.211-0.89-0.741h-0.022c-0.117,0.201-0.509,0.763-1.389,0.763
			c-0.805,0-1.377-0.55-1.377-1.388c0-1.135,1.24-1.558,2.428-1.558h0.276v-0.478c0-0.964-0.255-1.346-0.912-1.346
			c-0.244,0-0.456,0.073-0.541,0.105c-0.095,0.201-0.18,0.572-0.233,0.933c0,0-0.159,0.01-0.244,0.01
			c-0.36,0-0.562-0.17-0.562-0.498c0-0.658,0.869-1.155,1.855-1.155c1.166,0,1.706,0.636,1.706,1.833V139.77z M95.083,138.614
			c-0.858,0.043-1.346,0.35-1.346,0.913c0,0.444,0.254,0.741,0.689,0.741s0.763-0.286,0.901-0.455v-1.208L95.083,138.614z"/>
		<path d="M104.697,140.311l0.773,0.106c0,0,0.011,0.042,0.011,0.085c0,0.19-0.138,0.318-0.392,0.339l-1.399,0.128v-0.689h-0.032
			c-0.233,0.327-0.678,0.752-1.505,0.752c-1.039,0-2.014-0.667-2.014-2.512c0-1.971,1.378-2.861,2.734-2.861
			c0.308,0,0.572,0.053,0.753,0.095v-1.855l-0.753-0.106c0,0-0.01-0.074-0.01-0.117c0-0.18,0.137-0.308,0.392-0.328l1.441-0.138
			V140.311z M103.626,136.612c-0.159-0.149-0.445-0.318-0.89-0.318c-0.859,0-1.495,0.614-1.495,2.014
			c0,1.367,0.594,1.919,1.304,1.919c0.614,0,0.944-0.286,1.081-0.445V136.612z"/>
		<path d="M107.313,138.36c0.01,1.314,0.636,1.929,1.548,1.929c0.678,0,1.059-0.264,1.325-0.487
			c0.105,0.085,0.159,0.265,0.159,0.361c0,0.264-0.7,0.868-1.876,0.868c-1.304,0-2.279-0.742-2.279-2.587
			c0-1.844,1.113-2.787,2.321-2.787c1.198,0,1.802,0.731,1.802,1.792c0,0.275-0.053,0.645-0.127,0.911H107.313z M109.168,137.798
			c0.022-0.095,0.054-0.276,0.054-0.455c0-0.583-0.213-1.081-0.827-1.081c-0.626,0-0.996,0.498-1.071,1.537H109.168z"/>
		<path d="M113.758,136.294c-0.71,0-1.325,0.508-1.325,1.897c0,1.336,0.519,2.11,1.516,2.11c0.657,0,1.039-0.339,1.208-0.509
			c0.095,0.095,0.169,0.265,0.169,0.36c0,0.265-0.582,0.88-1.749,0.88c-1.378,0-2.268-0.868-2.268-2.619
			c0-1.792,1.198-2.755,2.629-2.755c1.166,0,1.462,0.572,1.462,0.879c0,0.286-0.137,0.551-0.54,0.636
			C114.701,136.802,114.458,136.294,113.758,136.294z"/>
		<path d="M117.891,140.332l0.625,0.137c0.106,0.021,0.149,0.053,0.149,0.137c0,0.106-0.085,0.265-0.106,0.297h-2.428
			c0,0-0.01-0.064-0.01-0.096c0-0.19,0.127-0.275,0.328-0.349l0.372-0.127v-3.922l-0.753-0.117c0,0-0.01-0.064-0.01-0.106
			c0-0.18,0.137-0.308,0.391-0.328l1.442-0.138V140.332z M117.35,134.672c-0.392,0-0.689-0.265-0.689-0.678
			c0-0.404,0.296-0.678,0.689-0.678c0.382,0,0.7,0.275,0.7,0.678C118.05,134.406,117.732,134.672,117.35,134.672z"/>
		<path d="M121.822,136.442c-0.116-0.085-0.381-0.212-0.699-0.212c-0.35,0-0.71,0.149-0.71,0.593c0,0.467,0.499,0.743,1.007,1.04
			c0.636,0.381,1.314,0.795,1.314,1.643c0,0.868-0.721,1.526-1.887,1.526c-0.594,0-1.123-0.18-1.346-0.318
			c-0.042-0.264-0.074-0.541-0.074-0.816c0-0.424,0.117-0.594,0.435-0.594c0.054,0,0.138,0.01,0.138,0.01l0.222,0.901
			c0.106,0.073,0.414,0.212,0.721,0.212c0.519,0,0.849-0.201,0.849-0.646c0-0.455-0.509-0.71-0.986-1.007
			c-0.646-0.414-1.293-0.827-1.293-1.739c0-0.826,0.721-1.378,1.738-1.378c0.615,0,1.049,0.212,1.24,0.391
			c0.022,0.149,0.042,0.371,0.042,0.583c0,0.371-0.074,0.615-0.455,0.615c-0.053,0-0.127-0.011-0.127-0.011L121.822,136.442z"/>
		<path d="M125.353,140.332l0.625,0.137c0.106,0.021,0.149,0.053,0.149,0.137c0,0.106-0.085,0.265-0.106,0.297h-2.428
			c0,0-0.01-0.064-0.01-0.096c0-0.19,0.127-0.275,0.328-0.349l0.372-0.127v-3.922l-0.753-0.117c0,0-0.01-0.064-0.01-0.106
			c0-0.18,0.137-0.308,0.391-0.328l1.442-0.138V140.332z M124.812,134.672c-0.392,0-0.689-0.265-0.689-0.678
			c0-0.404,0.296-0.678,0.689-0.678c0.382,0,0.7,0.275,0.7,0.678C125.512,134.406,125.194,134.672,124.812,134.672z"/>
		<path d="M131.796,138.296c0,1.835-1.282,2.735-2.575,2.735c-1.325,0-2.417-0.848-2.417-2.628c0-1.792,1.272-2.746,2.619-2.746
			C130.747,135.658,131.796,136.452,131.796,138.296z M127.938,138.339c0,1.421,0.572,2.056,1.357,2.056
			c0.784,0,1.367-0.614,1.367-2.035c0-1.421-0.583-2.078-1.367-2.078C128.51,136.283,127.938,136.908,127.938,138.339z"/>
		<path d="M137.742,140.332l0.625,0.137c0.106,0.021,0.149,0.053,0.149,0.137c0,0.106-0.085,0.265-0.106,0.297h-2.406
			c0,0-0.01-0.064-0.01-0.096c0-0.19,0.127-0.286,0.328-0.349l0.35-0.127v-2.682c0-0.901-0.509-1.177-1.028-1.177
			c-0.604,0-0.996,0.286-1.218,0.466v3.393l0.604,0.137c0.105,0.021,0.148,0.053,0.148,0.137c0,0.106-0.085,0.265-0.105,0.297
			h-2.406c0,0-0.011-0.064-0.011-0.096c0-0.19,0.127-0.275,0.328-0.349l0.372-0.127v-3.922l-0.753-0.117c0,0-0.01-0.064-0.01-0.106
			c0-0.18,0.137-0.308,0.391-0.328l1.442-0.138l-0.064,0.742h0.032c0.286-0.308,0.763-0.805,1.738-0.805
			c1.039,0,1.612,0.667,1.612,1.865V140.332z"/>
		<path d="M24.827,148.394h0.032c0.265-0.318,0.742-0.721,1.537-0.721c0.996,0,1.951,0.667,1.951,2.491
			c0,2.046-1.357,2.883-2.799,2.883c-0.954,0-1.526-0.244-1.802-0.403v-6.73l-0.742-0.106c0,0-0.011-0.074-0.011-0.117
			c0-0.18,0.138-0.308,0.392-0.328l1.441-0.138V148.394z M24.827,152.114c0.191,0.137,0.488,0.286,0.923,0.286
			c0.922,0,1.494-0.615,1.494-2.046c0-1.41-0.689-1.855-1.367-1.855c-0.488,0-0.827,0.191-1.05,0.435V152.114z"/>
		<path d="M33.805,148.34l-1.738,4.622c-0.615,1.632-1.346,2.205-2.247,2.205c-0.498,0-0.71-0.233-0.71-0.593
			c0-0.201,0.074-0.35,0.149-0.446c0.127,0.053,0.307,0.096,0.509,0.096c0.636,0,1.23-0.297,1.579-1.135l-2.014-4.77l-0.509-0.158
			c0,0-0.011-0.074-0.011-0.106c0-0.169,0.138-0.255,0.297-0.255h1.983c0.085,0,0.127,0.043,0.127,0.107
			c0,0.063-0.053,0.211-0.074,0.254l-0.593,0.158l1.25,3.457h0.032l1.208-3.446l-0.795-0.169c0,0-0.011-0.074-0.011-0.106
			c0-0.169,0.138-0.255,0.297-0.255h1.717c0.085,0,0.127,0.043,0.127,0.107c0,0.063-0.053,0.211-0.074,0.254L33.805,148.34z"/>
		<path d="M39.973,148.383H38.52v3.096c0,0.477,0.149,0.869,0.678,0.869c0.414,0,0.753-0.181,0.837-0.254
			c0.053,0.085,0.096,0.243,0.096,0.349s-0.371,0.604-1.336,0.604c-0.964,0-1.346-0.562-1.346-1.378v-3.286h-0.795
			c0,0-0.011-0.064-0.011-0.095c0-0.201,0.127-0.318,0.329-0.36l0.519-0.128l0.244-1.43h0.784v1.43h1.569L39.973,148.383z"/>
		<path d="M42.336,148.435h0.021c0.212-0.254,0.721-0.762,1.632-0.762c1.06,0,1.664,0.625,1.664,1.865v2.81l0.615,0.137
			c0.106,0.021,0.148,0.053,0.148,0.137c0,0.106-0.085,0.265-0.106,0.297h-2.406c0,0-0.011-0.064-0.011-0.096
			c0-0.19,0.127-0.286,0.329-0.349l0.35-0.127v-2.682c0-0.901-0.487-1.177-1.028-1.177c-0.657,0-1.007,0.286-1.209,0.487v3.371
			l0.594,0.137c0.106,0.021,0.149,0.053,0.149,0.137c0,0.106-0.074,0.265-0.106,0.297h-2.406c0,0-0.011-0.064-0.011-0.096
			c0-0.19,0.127-0.286,0.329-0.349l0.371-0.127v-6.434l-0.753-0.106c0,0-0.01-0.074-0.01-0.117c0-0.18,0.138-0.308,0.392-0.328
			l1.452-0.138V148.435z"/>
		<path d="M48.186,150.376c0.01,1.314,0.636,1.929,1.547,1.929c0.678,0,1.06-0.264,1.325-0.487c0.106,0.085,0.159,0.265,0.159,0.361
			c0,0.264-0.7,0.868-1.877,0.868c-1.304,0-2.279-0.742-2.279-2.587s1.113-2.787,2.322-2.787c1.198,0,1.802,0.731,1.802,1.792
			c0,0.275-0.053,0.645-0.127,0.911H48.186z M50.041,149.814c0.021-0.095,0.053-0.276,0.053-0.455c0-0.583-0.212-1.081-0.827-1.081
			c-0.626,0-0.996,0.498-1.071,1.537H50.041z"/>
		<path d="M59.633,146.474c-0.223-0.148-0.71-0.327-1.293-0.327c-1.293,0-2.555,0.847-2.555,3.041c0,2.121,0.986,3.17,2.385,3.17
			c0.509,0,0.911-0.095,1.219-0.212v-2.11l-0.647-0.149c-0.106-0.021-0.148-0.053-0.148-0.117c0-0.096,0.074-0.222,0.117-0.318
			h2.417c0,0,0.01,0.064,0.01,0.117c0,0.169-0.095,0.297-0.36,0.371l-0.244,0.064v2.215c-0.286,0.255-1.071,0.827-2.629,0.827
			c-1.865,0-3.328-1.155-3.328-3.731c0-2.757,2.046-3.837,3.805-3.837c1.124,0,1.686,0.318,2.035,0.476
			c0.032,0.318,0.064,0.976,0.064,1.06c0,0.328-0.095,0.541-0.371,0.541c-0.085,0-0.17-0.022-0.244-0.043L59.633,146.474z"/>
		<path d="M63.045,150.376c0.01,1.314,0.636,1.929,1.547,1.929c0.678,0,1.06-0.264,1.325-0.487c0.106,0.085,0.159,0.265,0.159,0.361
			c0,0.264-0.7,0.868-1.877,0.868c-1.304,0-2.279-0.742-2.279-2.587s1.113-2.787,2.322-2.787c1.198,0,1.802,0.731,1.802,1.792
			c0,0.275-0.053,0.645-0.127,0.911H63.045z M64.9,149.814c0.021-0.095,0.053-0.276,0.053-0.455c0-0.583-0.212-1.081-0.827-1.081
			c-0.626,0-0.996,0.498-1.071,1.537H64.9z"/>
		<path d="M68.652,148.648h0.032c0.223-0.36,0.614-0.975,1.304-0.975c0.498,0,0.732,0.233,0.732,0.561
			c0,0.233-0.106,0.435-0.191,0.541c-0.085-0.042-0.35-0.159-0.71-0.159c-0.583,0-0.88,0.233-1.102,0.54v3.192l0.763,0.137
			c0.106,0.021,0.149,0.053,0.149,0.137c0,0.106-0.085,0.265-0.106,0.297h-2.565c0,0-0.011-0.064-0.011-0.096
			c0-0.19,0.127-0.275,0.329-0.349l0.371-0.127v-3.922l-0.753-0.117c0,0-0.011-0.064-0.011-0.106c0-0.18,0.138-0.308,0.392-0.328
			l1.441-0.138L68.652,148.648z"/>
		<path d="M79.473,152.348l0.604,0.137c0.106,0.021,0.149,0.053,0.149,0.137c0,0.106-0.074,0.265-0.106,0.297h-2.396
			c0,0-0.011-0.064-0.011-0.096c0-0.19,0.127-0.286,0.328-0.349l0.35-0.127v-2.682c0-0.922-0.456-1.177-0.954-1.177
			c-0.646,0-1.007,0.276-1.251,0.498c0.032,0.169,0.053,0.35,0.053,0.551v2.81l0.615,0.137c0.106,0.021,0.148,0.053,0.148,0.137
			c0,0.106-0.074,0.265-0.106,0.297h-2.406c0,0-0.011-0.064-0.011-0.096c0-0.19,0.127-0.286,0.328-0.349l0.35-0.127v-2.682
			c0-0.922-0.445-1.177-0.943-1.177c-0.594,0-0.944,0.244-1.187,0.445v3.414l0.604,0.137c0.106,0.021,0.149,0.053,0.149,0.137
			c0,0.106-0.085,0.265-0.106,0.297h-2.406c0,0-0.011-0.064-0.011-0.096c0-0.19,0.127-0.275,0.329-0.349l0.371-0.127v-3.922
			l-0.753-0.117c0,0-0.011-0.064-0.011-0.106c0-0.18,0.138-0.308,0.392-0.328l1.441-0.138l-0.064,0.69h0.032
			c0.223-0.245,0.742-0.753,1.675-0.753c0.646,0,1.123,0.296,1.367,0.858c0.286-0.318,0.848-0.858,1.802-0.858
			c1.018,0,1.632,0.645,1.632,1.865V152.348z"/>
		<path d="M84.592,151.785c0,0.424,0.159,0.551,0.339,0.551c0.244,0,0.372-0.127,0.403-0.18c0.054,0.074,0.128,0.223,0.128,0.318
			c0,0.138-0.276,0.55-0.965,0.55c-0.487,0-0.794-0.211-0.89-0.741h-0.021c-0.117,0.201-0.51,0.763-1.389,0.763
			c-0.805,0-1.378-0.55-1.378-1.388c0-1.135,1.24-1.558,2.428-1.558h0.276v-0.478c0-0.964-0.255-1.346-0.912-1.346
			c-0.244,0-0.456,0.073-0.541,0.105c-0.096,0.201-0.18,0.572-0.233,0.933c0,0-0.159,0.01-0.244,0.01
			c-0.36,0-0.562-0.17-0.562-0.498c0-0.658,0.869-1.155,1.855-1.155c1.166,0,1.707,0.636,1.707,1.833V151.785z M83.277,150.63
			c-0.859,0.043-1.346,0.35-1.346,0.913c0,0.444,0.255,0.741,0.689,0.741c0.435,0,0.764-0.286,0.901-0.455v-1.208L83.277,150.63z"/>
		<path d="M91.015,152.348l0.626,0.137c0.105,0.021,0.148,0.053,0.148,0.137c0,0.106-0.085,0.265-0.105,0.297h-2.407
			c0,0-0.01-0.064-0.01-0.096c0-0.19,0.127-0.286,0.328-0.349l0.35-0.127v-2.682c0-0.901-0.509-1.177-1.028-1.177
			c-0.604,0-0.996,0.286-1.218,0.466v3.393l0.604,0.137c0.106,0.021,0.149,0.053,0.149,0.137c0,0.106-0.085,0.265-0.106,0.297
			h-2.406c0,0-0.011-0.064-0.011-0.096c0-0.19,0.128-0.275,0.329-0.349l0.371-0.127v-3.922l-0.753-0.117c0,0-0.01-0.064-0.01-0.106
			c0-0.18,0.137-0.308,0.392-0.328l1.441-0.138l-0.064,0.742h0.032c0.286-0.308,0.763-0.805,1.739-0.805
			c1.039,0,1.611,0.667,1.611,1.865V152.348z"/>
		<path d="M98.645,149.135v0.021c1.028,0.17,1.707,0.753,1.707,1.718c0,1.187-0.975,2.046-2.883,2.046h-2.692
			c0,0-0.011-0.064-0.011-0.117c0-0.169,0.086-0.318,0.36-0.382l0.446-0.105v-6.127l-0.647-0.149
			c-0.105-0.021-0.148-0.053-0.148-0.117c0-0.094,0.074-0.222,0.117-0.318h2.491c1.887,0,2.788,0.668,2.788,1.845
			C100.172,148.457,99.557,148.934,98.645,149.135z M97.289,146.252h-0.573v2.671h0.562c1.209,0,1.717-0.594,1.717-1.346
			C98.995,146.708,98.455,146.252,97.289,146.252z M97.416,149.538h-0.7v2.735h0.636c1.24,0,1.792-0.583,1.792-1.41
			C99.143,150.079,98.56,149.538,97.416,149.538z"/>
		<path d="M106.149,152.326l0.773,0.106c0,0,0.011,0.042,0.011,0.085c0,0.19-0.138,0.318-0.392,0.339l-1.399,0.128v-0.7h-0.022
			c-0.169,0.222-0.636,0.763-1.569,0.763c-1.134,0-1.664-0.667-1.664-1.919v-2.702l-0.753-0.117c0,0-0.01-0.064-0.01-0.106
			c0-0.18,0.138-0.308,0.392-0.328l1.441-0.138v3.339c0,0.964,0.509,1.187,0.976,1.187c0.54,0,0.9-0.233,1.144-0.509v-3.328
			l-0.753-0.117c0,0-0.01-0.064-0.01-0.106c0-0.18,0.138-0.308,0.392-0.328l1.441-0.138V152.326z"/>
		<path d="M112.635,152.348l0.625,0.137c0.106,0.021,0.149,0.053,0.149,0.137c0,0.106-0.085,0.265-0.106,0.297h-2.406
			c0,0-0.01-0.064-0.01-0.096c0-0.19,0.127-0.286,0.328-0.349l0.35-0.127v-2.682c0-0.901-0.509-1.177-1.028-1.177
			c-0.604,0-0.996,0.286-1.218,0.466v3.393l0.604,0.137c0.105,0.021,0.148,0.053,0.148,0.137c0,0.106-0.085,0.265-0.105,0.297
			h-2.407c0,0-0.01-0.064-0.01-0.096c0-0.19,0.127-0.275,0.328-0.349l0.372-0.127v-3.922l-0.753-0.117c0,0-0.01-0.064-0.01-0.106
			c0-0.18,0.137-0.308,0.391-0.328l1.442-0.138l-0.064,0.742h0.032c0.286-0.308,0.763-0.805,1.738-0.805
			c1.039,0,1.612,0.667,1.612,1.865V152.348z"/>
		<path d="M118.613,152.326l0.773,0.106c0,0,0.011,0.042,0.011,0.085c0,0.19-0.138,0.318-0.392,0.339l-1.399,0.128v-0.689h-0.032
			c-0.233,0.327-0.678,0.752-1.505,0.752c-1.039,0-2.014-0.667-2.014-2.512c0-1.971,1.377-2.861,2.734-2.861
			c0.308,0,0.572,0.053,0.753,0.095v-1.855l-0.753-0.106c0,0-0.01-0.074-0.01-0.117c0-0.18,0.137-0.308,0.392-0.328l1.441-0.138
			V152.326z M117.542,148.627c-0.159-0.149-0.445-0.318-0.89-0.318c-0.859,0-1.495,0.614-1.495,2.014
			c0,1.367,0.594,1.919,1.304,1.919c0.614,0,0.944-0.286,1.081-0.445V148.627z"/>
		<path d="M121.23,150.376c0.01,1.314,0.636,1.929,1.548,1.929c0.678,0,1.059-0.264,1.325-0.487
			c0.105,0.085,0.159,0.265,0.159,0.361c0,0.264-0.7,0.868-1.876,0.868c-1.304,0-2.279-0.742-2.279-2.587s1.113-2.787,2.321-2.787
			c1.198,0,1.802,0.731,1.802,1.792c0,0.275-0.053,0.645-0.127,0.911H121.23z M123.084,149.814c0.022-0.095,0.054-0.276,0.054-0.455
			c0-0.583-0.213-1.081-0.827-1.081c-0.626,0-0.996,0.498-1.071,1.537H123.084z"/>
		<path d="M127.652,148.457c-0.116-0.085-0.381-0.212-0.699-0.212c-0.35,0-0.71,0.149-0.71,0.593c0,0.467,0.499,0.743,1.007,1.04
			c0.636,0.381,1.314,0.795,1.314,1.643c0,0.868-0.721,1.526-1.887,1.526c-0.594,0-1.123-0.18-1.346-0.318
			c-0.042-0.264-0.074-0.541-0.074-0.816c0-0.424,0.117-0.594,0.435-0.594c0.054,0,0.138,0.01,0.138,0.01l0.222,0.901
			c0.106,0.073,0.414,0.212,0.721,0.212c0.519,0,0.849-0.201,0.849-0.646c0-0.455-0.509-0.71-0.986-1.007
			c-0.646-0.414-1.293-0.827-1.293-1.739c0-0.826,0.721-1.378,1.738-1.378c0.615,0,1.049,0.212,1.24,0.391
			c0.022,0.149,0.042,0.371,0.042,0.583c0,0.371-0.074,0.615-0.455,0.615c-0.053,0-0.127-0.011-0.127-0.011L127.652,148.457z"/>
		<path d="M132.538,148.383h-1.453v3.096c0,0.477,0.149,0.869,0.678,0.869c0.414,0,0.753-0.181,0.837-0.254
			c0.054,0.085,0.096,0.243,0.096,0.349s-0.372,0.604-1.336,0.604c-0.964,0-1.346-0.562-1.346-1.378v-3.286h-0.795
			c0,0-0.01-0.064-0.01-0.095c0-0.201,0.127-0.318,0.328-0.36l0.519-0.128l0.245-1.43h0.784v1.43h1.569L132.538,148.383z"/>
		<path d="M137.032,151.785c0,0.424,0.159,0.551,0.339,0.551c0.244,0,0.371-0.127,0.403-0.18c0.054,0.074,0.127,0.223,0.127,0.318
			c0,0.138-0.276,0.55-0.964,0.55c-0.487,0-0.795-0.211-0.89-0.741h-0.022c-0.117,0.201-0.508,0.763-1.388,0.763
			c-0.806,0-1.378-0.55-1.378-1.388c0-1.135,1.24-1.558,2.428-1.558h0.276v-0.478c0-0.964-0.255-1.346-0.912-1.346
			c-0.244,0-0.456,0.073-0.541,0.105c-0.095,0.201-0.18,0.572-0.232,0.933c0,0-0.159,0.01-0.245,0.01
			c-0.36,0-0.562-0.17-0.562-0.498c0-0.658,0.869-1.155,1.855-1.155c1.166,0,1.707,0.636,1.707,1.833V151.785z M135.718,150.63
			c-0.859,0.043-1.346,0.35-1.346,0.913c0,0.444,0.254,0.741,0.689,0.741c0.435,0,0.763-0.286,0.901-0.455v-1.208L135.718,150.63z"
			/>
		<path d="M143.158,148.404h-0.858c0.201,0.264,0.328,0.582,0.328,0.964c0,1.123-0.932,1.76-2.088,1.76
			c-0.181,0-0.34-0.021-0.499-0.053c-0.149,0.085-0.296,0.233-0.296,0.476c0,0.255,0.169,0.372,0.53,0.372h1.23
			c0.975,0,1.526,0.445,1.526,1.209c0,1.059-1.039,2.034-2.83,2.034c-1.303,0-1.939-0.455-1.939-1.229
			c0-0.742,0.582-1.092,0.964-1.209v-0.022c-0.276-0.148-0.435-0.403-0.435-0.741c0-0.615,0.562-0.901,0.763-1.007v-0.021
			c-0.594-0.265-0.975-0.806-0.975-1.569c0-1.113,0.932-1.696,2.014-1.696c0.286,0,0.562,0.041,0.827,0.126h1.855L143.158,148.404z
			 M140.105,152.877c-0.149,0-0.276-0.01-0.392-0.022c-0.276,0.16-0.455,0.424-0.455,0.785c0,0.551,0.339,0.901,1.112,0.901
			c1.028,0,1.664-0.478,1.664-1.039c0-0.435-0.244-0.626-0.785-0.626H140.105z M139.639,149.38c0,0.837,0.424,1.165,0.954,1.165
			c0.572,0,0.986-0.327,0.986-1.165c0-0.753-0.414-1.135-0.964-1.135C140.063,148.245,139.639,148.563,139.639,149.38z"/>
	</g>
</g>
<g id="Name">
	<polygon fill="#FFCC00" points="54.521,91.479 56.021,91.479 56.021,111.479 52.521,111.479 52.521,91.479 	"/>
	<polygon fill="#FF0000" points="54.521,71.379 56.021,71.379 56.021,91.479 52.521,91.479 52.521,71.379 	"/>
	<g>
		<path d="M43.401,58.477c1.026,1.624,1.831,1.596,3.044,1.596c-1.004-0.77-1.668-1.755-1.985-2.258l-1.876-3.001
			c-0.183-0.927-0.663-1.793-1.38-2.438c0.241-0.092,0.442-0.188,0.563-0.279c-1.225,0-2.438-0.622-3.106-0.622
			c-0.429,0-0.706,0.257-0.706,0.596c0.028,0.378,0.417,0.763,1.136,0.763c0.163,0,0.371-0.022,0.6-0.059
			c0.389,0.543,0.703,1.033,0.703,1.733c0,1.314-1.571,2.338-3.157,2.338c-0.09,0-0.175-0.003-0.264-0.01
			c-0.144-0.325-0.621-0.873-0.621-1.494c0-1.044,0.681-1.897,0.681-2.931c0-0.642-0.313-1.04-0.434-1.206
			c0.195-0.181,0.408-0.403,0.457-0.555c-0.113,0.049-0.247,0.055-0.443,0.055c-0.76,0-1.38-0.198-1.984-0.198
			c-0.344,0-0.437,0.107-0.437,0.208c0,0.037,0.006,0.075,0.016,0.093c-0.129-0.051-0.249-0.083-0.393-0.11
			c-0.178-0.034-0.37-0.051-0.574-0.051c-0.734,0-0.995,0.308-0.995,0.571c0,0.223,0.176,0.631,0.375,0.941
			c0.286-0.144,0.63-0.241,0.787-0.241c0.389,0,0.736,0.371,0.92,0.811c-0.262,0.031-0.312,0.043-0.577,0.043
			c-0.714,0-1.201-0.256-1.301-0.256c-0.01,0-0.029,0.005-0.029,0.021c0,0.1,0.203,0.365,0.602,0.511
			c0.526,0.192,1.315,0.273,1.446,0.294c0,0.023-0.134,0.272-0.283,0.32c-0.032,0.01-0.056,0.011-0.093,0.004
			c-0.55-0.109-0.703-0.155-1.401-0.42c-0.022-0.008-0.034,0.005-0.034,0.028c0,0.276,0.714,0.884,1.354,1.118
			c-0.534,0.682-1.202,1.38-1.516,2.444c-0.089,0.007-0.175,0.01-0.265,0.01c-1.586,0-3.157-1.024-3.157-2.338
			c0-0.7,0.314-1.19,0.704-1.733c0.229,0.038,0.436,0.059,0.599,0.059c0.719,0,1.108-0.385,1.137-0.763
			c0-0.339-0.276-0.596-0.707-0.596c-0.668,0-1.88,0.622-3.106,0.622c0.121,0.092,0.322,0.188,0.563,0.279
			c-0.717,0.644-1.197,1.511-1.38,2.438l-1.875,3.001c-0.316,0.503-0.982,1.489-1.986,2.258c1.213,0,2.018,0.027,3.045-1.596
			l0.961-1.539c0.072,0.2,0.159,0.394,0.262,0.585l-1.912,3.06c-0.318,0.507-0.977,1.485-1.986,2.259
			c1.214,0,2.018,0.028,3.044-1.595l1.646-2.636c0.123,0.131,0.253,0.26,0.389,0.382l-2.323,3.719
			c-0.319,0.508-0.975,1.483-1.985,2.257c1.214,0,2.018,0.029,3.045-1.595l2.264-3.626c0.149,0.094,0.302,0.186,0.46,0.272
			l-2.764,4.423c-0.319,0.509-0.975,1.481-1.985,2.257c1.214,0,2.018,0.028,3.045-1.594l2.846-4.556
			c0.168,0.065,0.339,0.126,0.513,0.182l-3.216,5.148c-0.314,0.501-0.985,1.491-1.984,2.257c1.213,0,2.018,0.027,3.044-1.595
			l3.428-5.487c0.035,0.006,0.069,0.012,0.103,0.019c0.093,0.297,0.159,0.573,0.159,0.849c0,1.724-1.131,3.247-2.489,4.422
			c0.087,0.038,0.238,0.051,0.378,0.051c0.28,0,0.461-0.015,0.588-0.037c-0.315,0.715-0.99,1.639-1.331,2.117
			c-0.445-0.08-1.091-0.143-1.515-0.143c-0.443,0-0.493,0.26-0.493,0.491c0,0.403,0.188,0.723,0.407,0.901
			c0.082-0.206,0.247-0.481,1.066-0.481c0.016,0,0.044,0.002,0.082,0.005c-0.239,0.266-0.989,0.872-0.989,1.359
			c0,0.323,0.355,0.807,0.821,0.807c-0.028-0.104-0.024-0.2-0.024-0.271c0-0.396,0.35-0.858,0.645-1.18
			c-0.009,0.096-0.004,0.086-0.004,0.198c0,0.934,0.085,1.363,0.677,1.363c0.291,0,0.492-0.16,0.561-0.208
			c-0.385-0.355-0.405-0.633-0.405-1.157c0.001-0.136,0.002-0.269,0.003-0.453c0.002-0.119,0-0.278-0.02-0.393
			c0.213-0.029,0.298-0.029,0.461-0.029c0,0,0.842-0.067,1.045,0.371c0.229-0.21,0.561-0.505,0.561-0.832
			c0-0.215-0.102-0.459-0.536-0.459c-0.164,0-0.681,0.101-1.113,0.101c0.116-0.259,0.633-1.015,1.081-1.563
			c0.067,0.213,0.173,0.443,0.408,0.631c0.032-0.353,0.239-1.469,0.791-2.121c0.064,0.441,0.151,0.893,0.151,1.847
			c0,2.32-0.558,4.034-1.742,4.361c0.154,0.268,0.48,0.509,0.818,0.509c0.433,0,0.669-0.49,0.91-0.952
			c0.125,0.341,0.472,1.177,0.818,1.177c0.347,0,0.693-0.836,0.819-1.177c0.241,0.462,0.476,0.952,0.91,0.952
			c0.338,0,0.665-0.241,0.819-0.509c-1.185-0.327-1.743-2.041-1.743-4.361c0-0.954,0.086-1.406,0.15-1.847
			c0.552,0.652,0.76,1.769,0.791,2.121c0.235-0.188,0.341-0.418,0.409-0.631c0.448,0.548,0.965,1.305,1.081,1.563
			c-0.433,0-0.95-0.101-1.114-0.101c-0.433,0-0.536,0.244-0.536,0.459c0,0.326,0.332,0.622,0.561,0.832
			c0.202-0.438,1.045-0.371,1.045-0.371c0.163,0,0.249,0,0.461,0.029c-0.02,0.115-0.021,0.273-0.02,0.393
			c0.002,0.184,0.003,0.317,0.003,0.453c0,0.524-0.02,0.802-0.405,1.157c0.069,0.048,0.27,0.208,0.56,0.208
			c0.593,0,0.678-0.429,0.678-1.363c0-0.112,0.003-0.102-0.004-0.198c0.295,0.322,0.645,0.784,0.645,1.18
			c0,0.072,0.004,0.167-0.024,0.271c0.467,0,0.822-0.484,0.822-0.807c0-0.488-0.749-1.093-0.989-1.359
			c0.039-0.003,0.067-0.005,0.082-0.005c0.819,0,0.984,0.275,1.067,0.481c0.219-0.178,0.407-0.499,0.407-0.901
			c0-0.231-0.049-0.491-0.493-0.491c-0.424,0-1.07,0.063-1.515,0.143c-0.341-0.478-1.016-1.402-1.331-2.117
			c0.127,0.023,0.308,0.037,0.588,0.037c0.141,0,0.291-0.013,0.378-0.051c-1.358-1.175-2.49-2.698-2.49-4.422
			c0-0.276,0.066-0.552,0.159-0.849c0.034-0.007,0.069-0.013,0.104-0.019l3.427,5.487c1.026,1.622,1.832,1.595,3.044,1.595
			c-0.999-0.766-1.67-1.755-1.983-2.257l-3.217-5.148c0.174-0.056,0.345-0.118,0.514-0.182l2.846,4.556
			c1.026,1.623,1.831,1.594,3.044,1.594c-1.01-0.776-1.666-1.747-1.985-2.257l-2.764-4.423c0.157-0.086,0.311-0.178,0.459-0.272
			l2.265,3.626c1.027,1.624,1.831,1.595,3.044,1.595c-1.009-0.774-1.665-1.748-1.985-2.257l-2.323-3.719
			c0.137-0.122,0.267-0.251,0.389-0.382l1.647,2.636c1.026,1.623,1.831,1.595,3.045,1.595c-1.009-0.774-1.667-1.751-1.986-2.259
			l-1.912-3.06c0.103-0.19,0.19-0.385,0.262-0.585L43.401,58.477z M28.051,54.953c0-1.143,0.831-2.047,1.124-2.302
			c0.071,0.017,0.141,0.034,0.211,0.049c-0.311,0.38-0.86,1.016-0.86,1.858c0,1.672,1.787,3.125,3.811,3.125
			c-0.013,0.143-0.02,0.294-0.02,0.449c0,0.247,0.014,0.477,0.038,0.693C30.066,58.812,28.051,56.954,28.051,54.953z M31.151,68.666
			l-0.013,0.039h0.04c0.642,0,0.955-0.046,1.163-0.076c0.109-0.014,0.187-0.025,0.271-0.025c0.166,0,0.293,0.016,0.293,0.219
			c0,0.138-0.161,0.356-0.317,0.482c-0.237-0.223-0.565-0.267-1.046-0.267c-0.225,0-0.52,0.04-0.678,0.063l-0.025,0.003
			l-0.028,0.004l0.009,0.075c0.019,0.133,0.042,0.299,0.042,0.522l-0.003,0.203l-0.002,0.252c0,0.546,0.075,0.857,0.266,1.092
			c-0.049,0.019-0.129,0.033-0.181,0.033c-0.338,0-0.437-0.148-0.437-1.124c0-0.196-0.011-0.38-0.018-0.502l-0.009-0.181
			l-0.043,0.033c-0.503,0.384-1.022,1.07-1.053,1.583c-0.152-0.098-0.316-0.317-0.316-0.486c0-0.28,0.421-0.7,0.908-1.187
			l0.281-0.28l0.035-0.036l-0.092-0.022c-0.105-0.027-0.299-0.076-0.465-0.076c-0.547,0-0.888,0.103-1.1,0.333
			c-0.075-0.11-0.139-0.365-0.139-0.515c0-0.097,0.019-0.165,0.058-0.205c0.048-0.046,0.122-0.046,0.187-0.046h0.014
			c0.602,0,1.322,0.109,1.603,0.154l0.017,0.004l0.011-0.014c0.049-0.066,1.196-1.594,1.495-2.405
			c0.068-0.025,0.128-0.045,0.248-0.045c0.226,0,0.289,0.153,0.354,0.386C31.761,67.522,31.314,68.2,31.151,68.666z M37.344,66.265
			c0.12,0,0.179,0.02,0.248,0.045c0.298,0.811,1.446,2.34,1.494,2.405l0.011,0.014l0.017-0.004c0.281-0.045,1-0.154,1.603-0.154
			h0.013c0.066,0,0.14,0,0.187,0.046c0.039,0.039,0.058,0.108,0.058,0.205c0,0.15-0.064,0.405-0.14,0.515
			c-0.211-0.23-0.553-0.333-1.1-0.333c-0.165,0-0.359,0.049-0.465,0.076l-0.043,0.01l-0.05,0.013l0.316,0.316
			c0.487,0.487,0.909,0.907,0.909,1.187c0,0.168-0.164,0.388-0.316,0.486c-0.032-0.513-0.55-1.199-1.054-1.583l-0.043-0.032
			l-0.008,0.18c-0.007,0.122-0.018,0.307-0.018,0.502c0,0.977-0.099,1.124-0.437,1.124c-0.052,0-0.131-0.015-0.181-0.033
			c0.19-0.235,0.266-0.546,0.266-1.092l-0.003-0.252l-0.003-0.203c0-0.223,0.023-0.389,0.041-0.522l0.01-0.075L38.604,69.1
			c-0.158-0.023-0.453-0.063-0.677-0.063c-0.482,0-0.809,0.044-1.046,0.267c-0.156-0.126-0.317-0.344-0.317-0.482
			c0-0.204,0.127-0.219,0.293-0.219c0.084,0,0.163,0.012,0.271,0.025c0.207,0.03,0.52,0.076,1.162,0.076h0.04l-0.012-0.039
			c-0.163-0.466-0.61-1.144-1.328-2.016C37.055,66.418,37.118,66.265,37.344,66.265z M34.686,52.926
			c-0.072-0.297-0.223-0.602-0.417-0.832c-0.176-0.208-0.468-0.455-0.861-0.455c-0.18,0-0.48,0.084-0.672,0.165
			c-0.072-0.13-0.212-0.444-0.212-0.586c0-0.145,0.246-0.293,0.716-0.293c1.035,0,1.653,0.468,1.653,1.252
			C34.894,52.452,34.785,52.703,34.686,52.926z M35.15,51.906c-0.037-0.221-0.121-0.422-0.25-0.594
			c0.006-0.203,0.09-0.396,0.416-0.237c-0.176,0.181-0.04,0.5-0.04,0.5s0.361-0.167,0.287-0.405
			C36.098,51.297,35.713,52.016,35.15,51.906z M37.164,58.825c0.027-0.224,0.043-0.456,0.043-0.693c0-0.129,0.001-0.279-0.015-0.45
			c1.998-0.028,3.752-1.468,3.752-3.124c0-0.843-0.549-1.479-0.86-1.858c0.07-0.015,0.14-0.031,0.211-0.049
			c0.293,0.255,1.124,1.159,1.124,2.302C41.419,56.94,39.432,58.784,37.164,58.825z"/>
	</g>
	<polygon points="56.021,51.479 56.021,71.479 54.521,71.479 52.521,71.479 52.521,51.479 	"/>
	<path d="M63.452,59.455v-8.211h4.034l-0.071,0.821h-2.927v3.035h2.701v0.821h-2.701v3.534H63.452z M72.139,55.67
		c0,0.246-0.008,0.458-0.024,0.637s-0.032,0.335-0.048,0.47h-2.915c0.032,0.674,0.176,1.17,0.434,1.487
		c0.258,0.317,0.629,0.476,1.113,0.476c0.167,0,0.317-0.02,0.452-0.06s0.252-0.087,0.351-0.143c0.099-0.056,0.182-0.111,0.25-0.167
		c0.067-0.056,0.117-0.099,0.149-0.131l0.357,0.678c-0.04,0.04-0.099,0.097-0.178,0.173c-0.079,0.075-0.186,0.151-0.321,0.226
		c-0.135,0.075-0.302,0.141-0.5,0.196c-0.198,0.056-0.432,0.083-0.702,0.083c-0.357,0-0.68-0.06-0.97-0.179
		c-0.29-0.119-0.535-0.304-0.738-0.553c-0.202-0.25-0.359-0.567-0.47-0.952c-0.111-0.385-0.167-0.847-0.167-1.386
		c0-0.508,0.058-0.946,0.173-1.315c0.115-0.369,0.272-0.672,0.47-0.91s0.428-0.415,0.69-0.53c0.262-0.115,0.543-0.173,0.845-0.173
		c0.547,0,0.976,0.173,1.285,0.518C71.985,54.462,72.139,54.98,72.139,55.67z M70.331,54.385c-0.341,0-0.615,0.143-0.821,0.428
		c-0.206,0.286-0.325,0.698-0.357,1.238h2.082c0.008-0.04,0.014-0.097,0.018-0.173c0.004-0.075,0.006-0.157,0.006-0.244
		c0-0.397-0.079-0.704-0.238-0.922C70.862,54.494,70.632,54.385,70.331,54.385z M73.163,56.682c0-0.579,0.075-1.063,0.226-1.452
		c0.151-0.389,0.345-0.702,0.583-0.94c0.238-0.238,0.508-0.407,0.809-0.506c0.301-0.099,0.603-0.149,0.904-0.149
		c0.183,0,0.341,0.014,0.476,0.042c0.135,0.028,0.246,0.061,0.333,0.101v-2.737l0.964-0.107v8.52h-0.881v-0.607h-0.024
		c-0.024,0.048-0.067,0.113-0.131,0.196s-0.151,0.167-0.262,0.25c-0.111,0.083-0.25,0.155-0.417,0.214
		c-0.167,0.06-0.361,0.089-0.583,0.089c-0.27,0-0.526-0.054-0.768-0.161c-0.242-0.107-0.454-0.278-0.637-0.512
		c-0.183-0.234-0.327-0.535-0.434-0.904S73.163,57.205,73.163,56.682z M75.424,58.741c0.151,0,0.286-0.02,0.405-0.06
		c0.119-0.04,0.222-0.089,0.309-0.149c0.087-0.06,0.161-0.121,0.22-0.184c0.06-0.064,0.105-0.119,0.137-0.167v-3.522
		c-0.087-0.056-0.188-0.103-0.303-0.143c-0.115-0.04-0.26-0.059-0.434-0.059c-0.222,0-0.43,0.038-0.625,0.113
		c-0.194,0.075-0.363,0.2-0.506,0.375s-0.256,0.401-0.339,0.678c-0.083,0.278-0.125,0.619-0.125,1.023
		c0,0.397,0.034,0.728,0.101,0.994c0.067,0.266,0.161,0.48,0.28,0.643c0.119,0.163,0.254,0.28,0.405,0.351
		C75.098,58.705,75.257,58.741,75.424,58.741z M82.599,55.67c0,0.246-0.008,0.458-0.024,0.637s-0.032,0.335-0.048,0.47h-2.916
		c0.032,0.674,0.176,1.17,0.434,1.487c0.258,0.317,0.629,0.476,1.113,0.476c0.167,0,0.317-0.02,0.452-0.06
		c0.135-0.04,0.252-0.087,0.351-0.143c0.099-0.056,0.182-0.111,0.25-0.167c0.067-0.056,0.117-0.099,0.149-0.131l0.357,0.678
		c-0.04,0.04-0.099,0.097-0.179,0.173c-0.079,0.075-0.186,0.151-0.321,0.226c-0.135,0.075-0.301,0.141-0.5,0.196
		s-0.432,0.083-0.702,0.083c-0.357,0-0.68-0.06-0.97-0.179c-0.29-0.119-0.535-0.304-0.738-0.553c-0.202-0.25-0.359-0.567-0.47-0.952
		c-0.111-0.385-0.167-0.847-0.167-1.386c0-0.508,0.058-0.946,0.173-1.315c0.115-0.369,0.272-0.672,0.47-0.91
		c0.198-0.238,0.428-0.415,0.69-0.53c0.262-0.115,0.543-0.173,0.845-0.173c0.547,0,0.976,0.173,1.285,0.518
		C82.445,54.462,82.599,54.98,82.599,55.67z M80.791,54.385c-0.341,0-0.615,0.143-0.821,0.428s-0.325,0.698-0.357,1.238h2.083
		c0.008-0.04,0.014-0.097,0.018-0.173c0.004-0.075,0.006-0.157,0.006-0.244c0-0.397-0.079-0.704-0.238-0.922
		C81.322,54.494,81.092,54.385,80.791,54.385z M86.396,54.587c-0.024-0.016-0.075-0.036-0.155-0.059s-0.186-0.036-0.321-0.036
		c-0.301,0-0.537,0.081-0.708,0.244c-0.171,0.163-0.292,0.339-0.363,0.53v4.189h-0.964v-5.712h0.881v0.773h0.024
		c0.04-0.111,0.091-0.22,0.155-0.327c0.063-0.107,0.143-0.202,0.238-0.286c0.095-0.083,0.208-0.149,0.339-0.196
		c0.131-0.048,0.288-0.071,0.47-0.071c0.135,0,0.244,0.012,0.327,0.036c0.083,0.024,0.149,0.044,0.196,0.059L86.396,54.587z
		 M86.955,58.003c0-0.333,0.063-0.611,0.19-0.833s0.298-0.403,0.512-0.542c0.214-0.139,0.466-0.238,0.756-0.298
		c0.289-0.06,0.597-0.089,0.922-0.089h0.298v-0.547c0-0.484-0.085-0.817-0.256-1c-0.171-0.182-0.411-0.274-0.72-0.274
		c-0.286,0-0.524,0.062-0.714,0.184c-0.19,0.123-0.341,0.232-0.452,0.327l-0.405-0.643c0.063-0.063,0.145-0.135,0.244-0.214
		c0.099-0.079,0.22-0.155,0.363-0.226c0.143-0.071,0.305-0.131,0.488-0.178s0.389-0.071,0.619-0.071
		c0.587,0,1.031,0.163,1.333,0.488c0.301,0.325,0.452,0.849,0.452,1.571v2.606c0,0.246,0.008,0.486,0.024,0.72
		c0.016,0.234,0.032,0.391,0.048,0.47h-0.916l-0.036-0.631H89.68c-0.032,0.071-0.079,0.153-0.143,0.244
		c-0.063,0.091-0.143,0.175-0.238,0.25c-0.095,0.075-0.21,0.141-0.345,0.196c-0.135,0.056-0.293,0.083-0.476,0.083
		c-0.214,0-0.414-0.04-0.601-0.119c-0.187-0.079-0.349-0.19-0.488-0.333c-0.139-0.143-0.246-0.311-0.321-0.506
		C86.993,58.445,86.955,58.233,86.955,58.003z M88.68,58.776c0.135,0,0.254-0.02,0.357-0.059c0.103-0.04,0.192-0.087,0.268-0.143
		c0.075-0.056,0.139-0.117,0.19-0.184c0.051-0.067,0.097-0.125,0.137-0.173v-1.261l-0.309,0.012
		c-0.46,0.016-0.809,0.095-1.047,0.238s-0.357,0.373-0.357,0.69c0,0.293,0.067,0.514,0.202,0.66
		C88.256,58.703,88.442,58.776,88.68,58.776z M92.988,58.122c0,0.238,0.034,0.405,0.101,0.5c0.067,0.095,0.184,0.143,0.351,0.143
		c0.087,0,0.161-0.008,0.22-0.024c0.059-0.016,0.105-0.032,0.137-0.048l0.083,0.714c-0.048,0.024-0.135,0.056-0.262,0.095
		c-0.127,0.04-0.298,0.06-0.512,0.06c-0.325,0-0.587-0.099-0.785-0.298c-0.198-0.198-0.298-0.551-0.298-1.059v-7.164l0.964-0.107
		V58.122z M104.317,51.244v8.211h-1v-3.903c0-0.246,0-0.488,0-0.726c0-0.238,0.002-0.46,0.006-0.666
		c0.004-0.206,0.01-0.389,0.018-0.547s0.016-0.282,0.024-0.369h-0.036c-0.04,0.183-0.121,0.478-0.244,0.887
		c-0.123,0.409-0.264,0.847-0.423,1.315l-1.357,4.01h-0.821l-1.357-4.01c-0.159-0.468-0.299-0.906-0.422-1.315
		c-0.123-0.409-0.204-0.704-0.244-0.887h-0.036c0.008,0.095,0.016,0.222,0.024,0.381c0.008,0.159,0.014,0.339,0.018,0.541
		c0.004,0.202,0.006,0.423,0.006,0.661c0,0.238,0,0.48,0,0.726v3.903h-1v-8.211h1.154l1.94,5.664
		c0.087,0.262,0.165,0.518,0.232,0.768c0.067,0.25,0.109,0.466,0.125,0.649h0.024c0.008-0.183,0.046-0.397,0.113-0.643
		c0.067-0.246,0.145-0.5,0.232-0.762l1.94-5.676H104.317z M106.959,59.455h-0.964v-5.712h0.964V59.455z M106.483,52.362
		c-0.198,0-0.357-0.063-0.476-0.19c-0.119-0.127-0.178-0.293-0.178-0.5c0-0.198,0.06-0.361,0.178-0.488
		c0.119-0.127,0.278-0.19,0.476-0.19c0.19,0,0.345,0.063,0.464,0.19c0.119,0.127,0.178,0.29,0.178,0.488
		c0,0.206-0.059,0.373-0.178,0.5C106.828,52.299,106.673,52.362,106.483,52.362z M111.552,59.455v-3.677
		c0-0.484-0.081-0.831-0.244-1.041c-0.163-0.21-0.411-0.315-0.744-0.315c-0.286,0-0.524,0.071-0.714,0.214
		c-0.19,0.143-0.341,0.282-0.452,0.417v4.403h-0.964v-5.712h0.881v0.643h0.024c0.024-0.048,0.075-0.117,0.155-0.208
		c0.079-0.091,0.183-0.179,0.309-0.262c0.127-0.083,0.278-0.157,0.452-0.22c0.174-0.063,0.373-0.095,0.595-0.095
		c0.254,0,0.484,0.038,0.69,0.113c0.206,0.075,0.381,0.196,0.524,0.363c0.143,0.167,0.254,0.383,0.333,0.649
		c0.079,0.266,0.119,0.593,0.119,0.982v3.748H111.552z M114.92,59.455h-0.964v-5.712h0.964V59.455z M114.444,52.362
		c-0.198,0-0.357-0.063-0.476-0.19c-0.119-0.127-0.179-0.293-0.179-0.5c0-0.198,0.06-0.361,0.179-0.488
		c0.119-0.127,0.278-0.19,0.476-0.19c0.19,0,0.345,0.063,0.464,0.19c0.119,0.127,0.179,0.29,0.179,0.488
		c0,0.206-0.06,0.373-0.179,0.5C114.789,52.299,114.634,52.362,114.444,52.362z M118.859,54.897
		c-0.063-0.071-0.178-0.169-0.345-0.292c-0.167-0.123-0.385-0.184-0.655-0.184c-0.254,0-0.448,0.06-0.583,0.179
		s-0.202,0.262-0.202,0.428c0,0.214,0.062,0.391,0.185,0.53c0.123,0.139,0.311,0.288,0.565,0.446l0.357,0.214
		c0.389,0.23,0.694,0.478,0.916,0.744c0.222,0.266,0.333,0.609,0.333,1.029c0,0.452-0.157,0.833-0.47,1.142
		c-0.313,0.309-0.764,0.464-1.351,0.464c-0.23,0-0.432-0.024-0.607-0.071c-0.174-0.048-0.327-0.103-0.458-0.167
		c-0.131-0.063-0.24-0.133-0.327-0.208c-0.087-0.075-0.159-0.145-0.214-0.208l0.464-0.762c0.048,0.048,0.105,0.103,0.173,0.167
		c0.067,0.063,0.149,0.125,0.244,0.184s0.202,0.109,0.321,0.149c0.119,0.04,0.258,0.06,0.417,0.06c0.286,0,0.504-0.064,0.655-0.19
		c0.151-0.127,0.226-0.282,0.226-0.464c0-0.135-0.018-0.252-0.053-0.351c-0.036-0.099-0.089-0.188-0.161-0.268
		c-0.071-0.079-0.159-0.155-0.262-0.226c-0.103-0.071-0.222-0.151-0.357-0.238l-0.357-0.226c-0.357-0.23-0.637-0.472-0.839-0.726
		c-0.202-0.254-0.303-0.579-0.303-0.976c0-0.214,0.042-0.411,0.125-0.589c0.083-0.178,0.2-0.333,0.351-0.464
		c0.151-0.131,0.327-0.234,0.53-0.309c0.202-0.075,0.418-0.113,0.648-0.113c0.222,0,0.412,0.022,0.571,0.065
		c0.159,0.044,0.296,0.099,0.411,0.167c0.115,0.068,0.21,0.135,0.286,0.202c0.075,0.068,0.137,0.125,0.184,0.173L118.859,54.897z
		 M123,54.528h-1.249v3.165c0,0.405,0.052,0.68,0.155,0.827c0.103,0.147,0.278,0.22,0.524,0.22c0.143,0,0.266-0.02,0.369-0.06
		c0.103-0.04,0.178-0.075,0.226-0.107l0.131,0.774c-0.04,0.032-0.135,0.081-0.286,0.149c-0.151,0.067-0.353,0.101-0.607,0.101
		c-0.492,0-0.861-0.137-1.107-0.411c-0.246-0.274-0.369-0.728-0.369-1.362v-3.296h-0.69v-0.643l0.69-0.143l0.107-1.595h0.857v1.595
		h1.368L123,54.528z M126.606,54.587c-0.024-0.016-0.075-0.036-0.155-0.059c-0.079-0.024-0.186-0.036-0.321-0.036
		c-0.301,0-0.537,0.081-0.708,0.244c-0.171,0.163-0.292,0.339-0.363,0.53v4.189h-0.964v-5.712h0.881v0.773h0.024
		c0.04-0.111,0.091-0.22,0.155-0.327c0.063-0.107,0.143-0.202,0.238-0.286c0.095-0.083,0.208-0.149,0.339-0.196
		c0.131-0.048,0.288-0.071,0.47-0.071c0.135,0,0.244,0.012,0.327,0.036c0.083,0.024,0.149,0.044,0.196,0.059L126.606,54.587z
		 M131.366,53.743l-1.785,6.045c-0.206,0.698-0.458,1.226-0.756,1.583c-0.297,0.357-0.728,0.535-1.291,0.535
		c-0.119,0-0.218-0.014-0.298-0.042c-0.079-0.028-0.135-0.05-0.167-0.065v-0.833c0.04,0.016,0.091,0.034,0.155,0.054
		c0.063,0.02,0.147,0.03,0.25,0.03c0.341,0,0.601-0.107,0.78-0.321c0.178-0.214,0.331-0.543,0.458-0.988l0.083-0.298l-1.845-5.7
		h1.035l0.893,3.165c0.087,0.325,0.167,0.629,0.238,0.91c0.071,0.282,0.115,0.534,0.131,0.756h0.024
		c0.016-0.222,0.054-0.472,0.113-0.75s0.133-0.579,0.22-0.904l0.809-3.177H131.366z M65.654,66.528h-1.166v4.927h-0.964v-4.927
		h-0.69v-0.643l0.69-0.131v-1.142c0-0.309,0.044-0.575,0.131-0.797c0.087-0.222,0.202-0.405,0.345-0.547s0.309-0.246,0.5-0.309
		s0.393-0.095,0.607-0.095c0.206,0,0.381,0.028,0.524,0.083s0.238,0.099,0.286,0.131l-0.202,0.797
		c-0.048-0.032-0.115-0.065-0.202-0.101c-0.087-0.036-0.194-0.053-0.321-0.053c-0.23,0-0.405,0.071-0.524,0.214
		c-0.119,0.143-0.179,0.405-0.179,0.785v1.023h1.285L65.654,66.528z M66.237,68.599c0-0.524,0.062-0.976,0.185-1.357
		c0.123-0.381,0.29-0.692,0.5-0.934c0.21-0.242,0.452-0.421,0.726-0.536c0.274-0.115,0.565-0.173,0.875-0.173
		c0.317,0,0.611,0.057,0.881,0.173c0.27,0.115,0.504,0.294,0.702,0.536c0.198,0.242,0.355,0.553,0.47,0.934
		c0.115,0.381,0.173,0.833,0.173,1.357c0,0.531-0.059,0.988-0.178,1.368c-0.119,0.381-0.284,0.692-0.494,0.934
		c-0.21,0.242-0.454,0.419-0.732,0.53s-0.571,0.167-0.881,0.167c-0.317,0-0.611-0.055-0.881-0.167s-0.504-0.288-0.702-0.53
		c-0.198-0.242-0.355-0.551-0.47-0.928C66.294,69.596,66.237,69.138,66.237,68.599z M69.747,68.599c0-0.762-0.111-1.315-0.333-1.66
		c-0.222-0.345-0.532-0.518-0.928-0.518c-0.397,0-0.704,0.173-0.922,0.518c-0.218,0.345-0.327,0.898-0.327,1.66
		c0,0.762,0.111,1.309,0.333,1.642s0.532,0.5,0.928,0.5c0.397,0,0.704-0.167,0.922-0.5C69.638,69.908,69.747,69.36,69.747,68.599z
		 M74.472,66.587c-0.024-0.016-0.075-0.036-0.155-0.06c-0.079-0.024-0.186-0.036-0.321-0.036c-0.301,0-0.537,0.081-0.708,0.244
		c-0.171,0.163-0.292,0.339-0.363,0.53v4.189h-0.964v-5.712h0.881v0.773h0.024c0.04-0.111,0.091-0.22,0.155-0.327
		s0.143-0.202,0.238-0.286s0.208-0.149,0.339-0.196c0.131-0.048,0.288-0.071,0.47-0.071c0.135,0,0.244,0.012,0.327,0.036
		c0.083,0.024,0.149,0.044,0.196,0.06L74.472,66.587z M81.838,64.065H78.91v2.832H81.6v0.821H78.91v2.88h3.225l-0.06,0.857h-4.201
		v-8.211h4.034L81.838,64.065z M86.407,66.849c-0.024-0.024-0.062-0.059-0.113-0.107c-0.052-0.048-0.117-0.095-0.196-0.143
		s-0.174-0.089-0.286-0.125c-0.111-0.036-0.238-0.053-0.381-0.053c-0.206,0-0.399,0.038-0.577,0.113
		c-0.179,0.075-0.333,0.196-0.464,0.363c-0.131,0.167-0.234,0.383-0.309,0.649c-0.075,0.266-0.113,0.589-0.113,0.97
		c0,0.421,0.034,0.773,0.101,1.059c0.067,0.286,0.161,0.514,0.28,0.684c0.119,0.171,0.264,0.294,0.434,0.369
		c0.171,0.075,0.359,0.113,0.565,0.113c0.294,0,0.518-0.052,0.672-0.155c0.155-0.103,0.264-0.186,0.327-0.25l0.393,0.666
		c-0.04,0.048-0.097,0.105-0.172,0.173c-0.075,0.068-0.173,0.133-0.292,0.196c-0.119,0.063-0.264,0.117-0.434,0.161
		c-0.171,0.044-0.367,0.065-0.589,0.065c-0.317,0-0.615-0.052-0.893-0.155c-0.278-0.103-0.52-0.274-0.726-0.512
		s-0.369-0.547-0.488-0.928c-0.119-0.381-0.178-0.853-0.178-1.416c0-0.547,0.071-1.012,0.214-1.392s0.329-0.688,0.559-0.922
		c0.23-0.234,0.486-0.405,0.768-0.512c0.282-0.107,0.565-0.161,0.851-0.161c0.214,0,0.403,0.02,0.565,0.06
		c0.163,0.04,0.301,0.089,0.416,0.149c0.115,0.06,0.21,0.123,0.286,0.19c0.075,0.068,0.137,0.125,0.184,0.173L86.407,66.849z
		 M87.467,68.599c0-0.524,0.062-0.976,0.184-1.357c0.123-0.381,0.29-0.692,0.5-0.934c0.21-0.242,0.452-0.421,0.726-0.536
		c0.274-0.115,0.565-0.173,0.875-0.173c0.317,0,0.611,0.057,0.881,0.173c0.27,0.115,0.504,0.294,0.702,0.536
		c0.198,0.242,0.355,0.553,0.47,0.934c0.115,0.381,0.172,0.833,0.172,1.357c0,0.531-0.059,0.988-0.178,1.368
		c-0.119,0.381-0.284,0.692-0.494,0.934c-0.21,0.242-0.454,0.419-0.732,0.53s-0.571,0.167-0.881,0.167
		c-0.317,0-0.611-0.055-0.881-0.167s-0.504-0.288-0.702-0.53c-0.198-0.242-0.355-0.551-0.47-0.928
		C87.524,69.596,87.467,69.138,87.467,68.599z M90.977,68.599c0-0.762-0.111-1.315-0.333-1.66c-0.222-0.345-0.532-0.518-0.928-0.518
		c-0.397,0-0.704,0.173-0.922,0.518c-0.218,0.345-0.327,0.898-0.327,1.66c0,0.762,0.111,1.309,0.333,1.642s0.532,0.5,0.928,0.5
		c0.397,0,0.704-0.167,0.922-0.5C90.868,69.908,90.977,69.36,90.977,68.599z M96.308,71.455v-3.677c0-0.484-0.081-0.831-0.244-1.041
		c-0.163-0.21-0.411-0.315-0.744-0.315c-0.286,0-0.524,0.071-0.714,0.214s-0.341,0.282-0.452,0.416v4.403H93.19v-5.712h0.881v0.643
		h0.024c0.024-0.048,0.075-0.117,0.155-0.208c0.079-0.091,0.183-0.178,0.309-0.262s0.278-0.157,0.452-0.22s0.373-0.095,0.595-0.095
		c0.254,0,0.484,0.038,0.69,0.113c0.206,0.075,0.381,0.196,0.524,0.363c0.143,0.167,0.254,0.383,0.333,0.648
		c0.079,0.266,0.119,0.593,0.119,0.982v3.748H96.308z M98.45,68.599c0-0.524,0.062-0.976,0.185-1.357
		c0.123-0.381,0.289-0.692,0.5-0.934c0.21-0.242,0.452-0.421,0.726-0.536c0.274-0.115,0.565-0.173,0.875-0.173
		c0.317,0,0.611,0.057,0.881,0.173c0.27,0.115,0.504,0.294,0.702,0.536c0.198,0.242,0.355,0.553,0.47,0.934
		c0.115,0.381,0.173,0.833,0.173,1.357c0,0.531-0.06,0.988-0.179,1.368c-0.119,0.381-0.284,0.692-0.494,0.934
		c-0.21,0.242-0.454,0.419-0.732,0.53c-0.278,0.111-0.571,0.167-0.881,0.167c-0.317,0-0.611-0.055-0.881-0.167
		c-0.27-0.111-0.504-0.288-0.702-0.53c-0.198-0.242-0.355-0.551-0.47-0.928C98.508,69.596,98.45,69.138,98.45,68.599z
		 M101.961,68.599c0-0.762-0.111-1.315-0.333-1.66c-0.222-0.345-0.532-0.518-0.928-0.518s-0.704,0.173-0.922,0.518
		c-0.218,0.345-0.327,0.898-0.327,1.66c0,0.762,0.111,1.309,0.333,1.642s0.531,0.5,0.928,0.5c0.397,0,0.704-0.167,0.922-0.5
		C101.852,69.908,101.961,69.36,101.961,68.599z M107.173,71.455v-3.677c0-0.468-0.067-0.805-0.202-1.011
		c-0.135-0.206-0.353-0.309-0.655-0.309c-0.159,0-0.299,0.02-0.422,0.06c-0.123,0.04-0.232,0.089-0.327,0.149
		c-0.095,0.059-0.178,0.125-0.25,0.196c-0.071,0.071-0.131,0.135-0.178,0.19v4.403h-0.964v-5.712h0.881v0.643h0.024
		c0.04-0.063,0.099-0.141,0.179-0.232c0.079-0.091,0.178-0.179,0.298-0.262c0.119-0.083,0.258-0.153,0.416-0.208
		c0.159-0.055,0.337-0.083,0.535-0.083c0.65,0,1.111,0.254,1.38,0.762c0.055-0.079,0.131-0.165,0.226-0.256
		c0.095-0.091,0.206-0.174,0.333-0.25c0.127-0.075,0.27-0.137,0.428-0.184s0.333-0.071,0.524-0.071c1.158,0,1.737,0.674,1.737,2.023
		v3.832h-0.964v-3.677c0-0.468-0.083-0.805-0.25-1.011c-0.167-0.206-0.412-0.309-0.738-0.309c-0.27,0-0.494,0.066-0.672,0.196
		c-0.178,0.131-0.319,0.256-0.423,0.375c0.016,0.087,0.028,0.18,0.036,0.28c0.008,0.099,0.012,0.204,0.012,0.315v3.832H107.173z
		 M113.539,71.455h-0.964v-5.712h0.964V71.455z M113.063,64.362c-0.198,0-0.357-0.063-0.476-0.19
		c-0.119-0.127-0.179-0.293-0.179-0.5c0-0.198,0.06-0.361,0.179-0.488c0.119-0.127,0.278-0.19,0.476-0.19
		c0.19,0,0.345,0.063,0.464,0.19c0.119,0.127,0.178,0.29,0.178,0.488c0,0.206-0.06,0.373-0.178,0.5
		C113.409,64.299,113.254,64.362,113.063,64.362z M118.192,66.849c-0.024-0.024-0.062-0.059-0.113-0.107
		c-0.052-0.048-0.117-0.095-0.196-0.143s-0.174-0.089-0.286-0.125c-0.111-0.036-0.238-0.053-0.381-0.053
		c-0.206,0-0.399,0.038-0.577,0.113c-0.179,0.075-0.333,0.196-0.464,0.363c-0.131,0.167-0.234,0.383-0.309,0.649
		c-0.075,0.266-0.113,0.589-0.113,0.97c0,0.421,0.034,0.773,0.101,1.059c0.067,0.286,0.161,0.514,0.28,0.684
		c0.119,0.171,0.264,0.294,0.434,0.369c0.171,0.075,0.359,0.113,0.565,0.113c0.294,0,0.518-0.052,0.672-0.155
		c0.155-0.103,0.264-0.186,0.327-0.25l0.393,0.666c-0.04,0.048-0.097,0.105-0.172,0.173c-0.075,0.068-0.173,0.133-0.292,0.196
		s-0.264,0.117-0.434,0.161c-0.171,0.044-0.367,0.065-0.589,0.065c-0.317,0-0.615-0.052-0.893-0.155
		c-0.278-0.103-0.52-0.274-0.726-0.512s-0.369-0.547-0.488-0.928c-0.119-0.381-0.178-0.853-0.178-1.416
		c0-0.547,0.071-1.012,0.214-1.392c0.143-0.381,0.329-0.688,0.559-0.922c0.23-0.234,0.486-0.405,0.768-0.512
		c0.282-0.107,0.565-0.161,0.851-0.161c0.214,0,0.403,0.02,0.565,0.06c0.163,0.04,0.301,0.089,0.416,0.149
		c0.115,0.06,0.21,0.123,0.286,0.19c0.075,0.068,0.137,0.125,0.184,0.173L118.192,66.849z M127.391,71.455h-1.142l-0.738-2.63
		h-2.487l-0.75,2.63h-1.047l2.678-8.211h0.809L127.391,71.455z M125.285,68.039l-0.643-2.249c-0.087-0.301-0.163-0.589-0.226-0.863
		s-0.099-0.502-0.107-0.684h-0.024c-0.008,0.182-0.046,0.407-0.113,0.672c-0.068,0.266-0.145,0.549-0.232,0.851l-0.678,2.273
		H125.285z M130.604,66.528h-1.166v4.927h-0.964v-4.927h-0.69v-0.643l0.69-0.131v-1.142c0-0.309,0.044-0.575,0.131-0.797
		c0.087-0.222,0.202-0.405,0.345-0.547c0.143-0.143,0.309-0.246,0.5-0.309s0.393-0.095,0.607-0.095c0.206,0,0.381,0.028,0.524,0.083
		c0.143,0.056,0.238,0.099,0.286,0.131l-0.202,0.797c-0.048-0.032-0.115-0.065-0.202-0.101c-0.087-0.036-0.194-0.053-0.321-0.053
		c-0.23,0-0.405,0.071-0.524,0.214c-0.119,0.143-0.178,0.405-0.178,0.785v1.023h1.285L130.604,66.528z M133.96,66.528h-1.166v4.927
		h-0.964v-4.927h-0.69v-0.643l0.69-0.131v-1.142c0-0.309,0.044-0.575,0.131-0.797c0.087-0.222,0.202-0.405,0.345-0.547
		c0.143-0.143,0.309-0.246,0.5-0.309s0.393-0.095,0.607-0.095c0.206,0,0.381,0.028,0.524,0.083c0.143,0.056,0.238,0.099,0.286,0.131
		l-0.202,0.797c-0.048-0.032-0.115-0.065-0.202-0.101c-0.087-0.036-0.194-0.053-0.321-0.053c-0.23,0-0.405,0.071-0.524,0.214
		s-0.178,0.405-0.178,0.785v1.023h1.285L133.96,66.528z M134.519,70.003c0-0.333,0.064-0.611,0.19-0.833
		c0.127-0.222,0.298-0.403,0.512-0.542c0.214-0.139,0.466-0.238,0.756-0.298c0.289-0.059,0.597-0.089,0.922-0.089h0.298v-0.547
		c0-0.484-0.085-0.817-0.256-1c-0.171-0.182-0.411-0.274-0.72-0.274c-0.286,0-0.524,0.062-0.714,0.184
		c-0.19,0.123-0.341,0.232-0.452,0.327l-0.405-0.643c0.063-0.063,0.145-0.135,0.244-0.214c0.099-0.079,0.22-0.155,0.363-0.226
		c0.143-0.071,0.305-0.131,0.488-0.179c0.182-0.048,0.389-0.071,0.619-0.071c0.587,0,1.031,0.163,1.333,0.488
		s0.452,0.849,0.452,1.571v2.606c0,0.246,0.008,0.486,0.024,0.72c0.016,0.234,0.032,0.391,0.048,0.47h-0.916l-0.036-0.631h-0.024
		c-0.032,0.071-0.079,0.153-0.143,0.244c-0.064,0.091-0.143,0.175-0.238,0.25c-0.095,0.075-0.21,0.141-0.345,0.196
		c-0.135,0.055-0.294,0.083-0.476,0.083c-0.214,0-0.415-0.04-0.601-0.119c-0.186-0.079-0.349-0.19-0.488-0.333
		c-0.139-0.143-0.246-0.311-0.321-0.506C134.557,70.445,134.519,70.233,134.519,70.003z M136.245,70.776
		c0.135,0,0.254-0.02,0.357-0.06c0.103-0.04,0.192-0.087,0.268-0.143c0.075-0.055,0.139-0.117,0.19-0.185
		c0.051-0.067,0.097-0.125,0.137-0.173v-1.261l-0.309,0.012c-0.46,0.016-0.809,0.095-1.047,0.238
		c-0.238,0.143-0.357,0.373-0.357,0.69c0,0.294,0.067,0.514,0.202,0.66C135.82,70.703,136.007,70.776,136.245,70.776z
		 M140.564,71.455H139.6v-5.712h0.964V71.455z M140.088,64.362c-0.198,0-0.357-0.063-0.476-0.19s-0.178-0.293-0.178-0.5
		c0-0.198,0.059-0.361,0.178-0.488c0.119-0.127,0.278-0.19,0.476-0.19c0.19,0,0.345,0.063,0.464,0.19
		c0.119,0.127,0.178,0.29,0.178,0.488c0,0.206-0.06,0.373-0.178,0.5C140.433,64.299,140.279,64.362,140.088,64.362z M144.551,66.587
		c-0.024-0.016-0.075-0.036-0.155-0.06c-0.079-0.024-0.186-0.036-0.321-0.036c-0.301,0-0.538,0.081-0.708,0.244
		c-0.171,0.163-0.292,0.339-0.363,0.53v4.189h-0.964v-5.712h0.881v0.773h0.024c0.04-0.111,0.091-0.22,0.155-0.327
		c0.063-0.107,0.143-0.202,0.238-0.286s0.208-0.149,0.339-0.196c0.131-0.048,0.288-0.071,0.47-0.071
		c0.135,0,0.244,0.012,0.327,0.036c0.083,0.024,0.149,0.044,0.196,0.06L144.551,66.587z M147.919,66.897
		c-0.063-0.071-0.178-0.169-0.345-0.292c-0.167-0.123-0.385-0.184-0.654-0.184c-0.254,0-0.448,0.06-0.583,0.178
		c-0.135,0.119-0.202,0.262-0.202,0.428c0,0.214,0.061,0.391,0.184,0.529c0.123,0.139,0.311,0.288,0.565,0.446l0.357,0.214
		c0.389,0.23,0.694,0.478,0.916,0.744c0.222,0.266,0.333,0.609,0.333,1.029c0,0.452-0.157,0.833-0.47,1.142
		c-0.313,0.309-0.764,0.464-1.351,0.464c-0.23,0-0.432-0.024-0.607-0.071s-0.327-0.103-0.458-0.167
		c-0.131-0.063-0.24-0.133-0.327-0.208c-0.087-0.075-0.159-0.145-0.214-0.208l0.464-0.762c0.048,0.048,0.105,0.103,0.173,0.167
		c0.067,0.063,0.149,0.125,0.244,0.184c0.095,0.06,0.202,0.109,0.321,0.149s0.258,0.06,0.417,0.06c0.286,0,0.504-0.063,0.654-0.19
		c0.151-0.127,0.226-0.282,0.226-0.464c0-0.135-0.018-0.252-0.053-0.351c-0.036-0.099-0.089-0.188-0.161-0.268
		s-0.159-0.155-0.262-0.226c-0.103-0.071-0.222-0.151-0.357-0.238l-0.357-0.226c-0.357-0.23-0.637-0.472-0.839-0.726
		c-0.202-0.254-0.303-0.579-0.303-0.976c0-0.214,0.042-0.411,0.125-0.589c0.083-0.178,0.2-0.333,0.351-0.464
		c0.151-0.131,0.327-0.234,0.53-0.309c0.202-0.075,0.418-0.113,0.648-0.113c0.222,0,0.413,0.022,0.571,0.065
		c0.159,0.044,0.296,0.099,0.411,0.167c0.115,0.067,0.21,0.135,0.286,0.202c0.075,0.068,0.137,0.125,0.184,0.173L147.919,66.897z
		 M62.917,82.003c0-0.333,0.063-0.611,0.19-0.833s0.298-0.403,0.512-0.542c0.214-0.139,0.466-0.238,0.756-0.298
		c0.289-0.059,0.597-0.089,0.922-0.089h0.298v-0.547c0-0.484-0.085-0.817-0.256-1c-0.171-0.182-0.411-0.274-0.72-0.274
		c-0.286,0-0.524,0.062-0.714,0.184c-0.19,0.123-0.341,0.232-0.452,0.327l-0.405-0.643c0.063-0.063,0.145-0.135,0.244-0.214
		c0.099-0.079,0.22-0.155,0.363-0.226c0.143-0.071,0.305-0.131,0.488-0.179c0.183-0.048,0.389-0.071,0.619-0.071
		c0.587,0,1.031,0.163,1.333,0.488c0.302,0.325,0.452,0.849,0.452,1.571v2.606c0,0.246,0.008,0.486,0.024,0.72
		c0.016,0.234,0.032,0.391,0.048,0.47h-0.916l-0.036-0.631h-0.024c-0.032,0.071-0.079,0.153-0.143,0.244
		c-0.064,0.091-0.143,0.175-0.238,0.25c-0.095,0.075-0.21,0.141-0.345,0.196c-0.135,0.055-0.293,0.083-0.476,0.083
		c-0.214,0-0.414-0.04-0.601-0.119c-0.187-0.079-0.349-0.19-0.488-0.333c-0.139-0.143-0.246-0.311-0.321-0.506
		C62.955,82.445,62.917,82.233,62.917,82.003z M64.642,82.776c0.135,0,0.254-0.02,0.357-0.06c0.103-0.04,0.192-0.087,0.268-0.143
		c0.075-0.055,0.139-0.117,0.19-0.185c0.051-0.067,0.097-0.125,0.137-0.173v-1.261l-0.309,0.012
		c-0.46,0.016-0.809,0.095-1.047,0.238s-0.357,0.373-0.357,0.69c0,0.294,0.067,0.514,0.202,0.66
		C64.218,82.703,64.404,82.776,64.642,82.776z M71.116,83.455v-3.677c0-0.484-0.081-0.831-0.244-1.041
		c-0.163-0.21-0.411-0.315-0.744-0.315c-0.286,0-0.524,0.071-0.714,0.214c-0.19,0.143-0.341,0.282-0.452,0.416v4.403h-0.964v-5.712
		h0.881v0.643h0.024c0.024-0.048,0.075-0.117,0.155-0.208c0.079-0.091,0.182-0.178,0.309-0.262c0.127-0.083,0.278-0.157,0.452-0.22
		s0.373-0.095,0.595-0.095c0.254,0,0.484,0.038,0.69,0.113c0.206,0.075,0.381,0.196,0.524,0.363
		c0.143,0.167,0.254,0.383,0.333,0.648c0.079,0.266,0.119,0.593,0.119,0.982v3.748H71.116z M73.258,80.682
		c0-0.579,0.075-1.063,0.226-1.452c0.151-0.389,0.345-0.702,0.583-0.94c0.238-0.238,0.508-0.407,0.809-0.506
		c0.301-0.099,0.603-0.149,0.904-0.149c0.183,0,0.341,0.014,0.476,0.042c0.135,0.028,0.246,0.061,0.333,0.101v-2.737l0.964-0.107
		v8.52h-0.881v-0.607h-0.024c-0.024,0.048-0.067,0.113-0.131,0.196s-0.151,0.167-0.262,0.25s-0.25,0.155-0.417,0.214
		c-0.167,0.059-0.361,0.089-0.583,0.089c-0.27,0-0.526-0.053-0.768-0.161c-0.242-0.107-0.454-0.278-0.637-0.512
		c-0.183-0.234-0.327-0.535-0.434-0.904C73.312,81.652,73.258,81.205,73.258,80.682z M75.519,82.741c0.151,0,0.286-0.02,0.405-0.06
		c0.119-0.04,0.222-0.089,0.309-0.149c0.087-0.059,0.161-0.121,0.22-0.184s0.105-0.119,0.137-0.167v-3.522
		c-0.087-0.055-0.188-0.103-0.303-0.143c-0.115-0.04-0.26-0.06-0.434-0.06c-0.222,0-0.43,0.038-0.625,0.113
		c-0.194,0.075-0.363,0.2-0.506,0.375s-0.256,0.401-0.339,0.678c-0.083,0.278-0.125,0.619-0.125,1.023
		c0,0.397,0.034,0.728,0.101,0.994c0.067,0.266,0.161,0.48,0.28,0.643c0.119,0.163,0.254,0.28,0.405,0.351
		C75.194,82.705,75.352,82.741,75.519,82.741z M81.374,79.349c0-0.77,0.095-1.424,0.286-1.964c0.19-0.539,0.442-0.978,0.756-1.315
		c0.313-0.337,0.67-0.583,1.071-0.738c0.401-0.155,0.811-0.232,1.232-0.232c0.301,0,0.561,0.032,0.779,0.095
		c0.218,0.063,0.405,0.137,0.559,0.22s0.28,0.171,0.375,0.262c0.095,0.091,0.171,0.165,0.226,0.22l-0.559,0.69
		c-0.04-0.04-0.095-0.095-0.167-0.167c-0.071-0.071-0.161-0.141-0.268-0.208c-0.107-0.067-0.236-0.127-0.387-0.179
		c-0.151-0.051-0.325-0.077-0.524-0.077c-0.301,0-0.591,0.06-0.869,0.179c-0.278,0.119-0.52,0.311-0.726,0.577
		c-0.206,0.266-0.371,0.609-0.494,1.029c-0.123,0.421-0.184,0.932-0.184,1.535c0,0.627,0.052,1.156,0.155,1.589
		c0.103,0.432,0.25,0.785,0.44,1.059c0.19,0.274,0.419,0.472,0.684,0.595c0.266,0.123,0.561,0.185,0.886,0.185
		c0.23,0,0.43-0.024,0.601-0.071c0.17-0.048,0.319-0.103,0.446-0.167s0.23-0.129,0.309-0.196c0.079-0.067,0.143-0.125,0.19-0.173
		l0.393,0.702c-0.056,0.055-0.133,0.129-0.232,0.22c-0.099,0.091-0.232,0.178-0.399,0.262c-0.167,0.083-0.365,0.157-0.595,0.22
		c-0.23,0.063-0.504,0.095-0.821,0.095c-0.476,0-0.908-0.077-1.297-0.232c-0.389-0.155-0.722-0.401-1-0.738
		c-0.278-0.337-0.492-0.775-0.643-1.315C81.449,80.773,81.374,80.119,81.374,79.349z M88.609,82.122c0,0.238,0.034,0.405,0.101,0.5
		c0.067,0.095,0.184,0.143,0.351,0.143c0.087,0,0.161-0.008,0.22-0.024s0.105-0.032,0.137-0.048l0.083,0.714
		c-0.048,0.024-0.135,0.056-0.262,0.095c-0.127,0.04-0.298,0.06-0.512,0.06c-0.325,0-0.587-0.099-0.785-0.298
		c-0.198-0.198-0.298-0.551-0.298-1.059v-7.164l0.964-0.107V82.122z M91.334,83.455H90.37v-5.712h0.964V83.455z M90.858,76.362
		c-0.198,0-0.357-0.063-0.476-0.19s-0.178-0.294-0.178-0.5c0-0.198,0.059-0.361,0.178-0.488s0.278-0.19,0.476-0.19
		c0.19,0,0.345,0.063,0.464,0.19c0.119,0.127,0.178,0.29,0.178,0.488c0,0.206-0.06,0.373-0.178,0.5
		C91.203,76.299,91.048,76.362,90.858,76.362z M95.808,83.455v-3.677c0-0.468-0.067-0.805-0.202-1.011
		c-0.135-0.206-0.353-0.309-0.654-0.309c-0.159,0-0.299,0.02-0.422,0.06c-0.123,0.04-0.232,0.089-0.327,0.149
		c-0.095,0.059-0.178,0.125-0.25,0.196c-0.071,0.071-0.131,0.135-0.178,0.19v4.403H92.81v-5.712h0.881v0.643h0.024
		c0.04-0.063,0.099-0.141,0.178-0.232c0.079-0.091,0.179-0.179,0.298-0.262c0.119-0.083,0.258-0.153,0.417-0.208
		c0.159-0.055,0.337-0.083,0.535-0.083c0.65,0,1.111,0.254,1.38,0.762c0.055-0.079,0.131-0.165,0.226-0.256
		c0.095-0.091,0.206-0.174,0.333-0.25c0.127-0.075,0.27-0.137,0.428-0.184s0.333-0.071,0.524-0.071c1.158,0,1.737,0.674,1.737,2.023
		v3.832h-0.964v-3.677c0-0.468-0.083-0.805-0.25-1.011s-0.412-0.309-0.738-0.309c-0.27,0-0.494,0.066-0.672,0.196
		c-0.178,0.131-0.319,0.256-0.423,0.375c0.016,0.087,0.028,0.18,0.036,0.28c0.008,0.099,0.012,0.204,0.012,0.315v3.832H95.808z
		 M100.878,82.003c0-0.333,0.063-0.611,0.19-0.833c0.127-0.222,0.297-0.403,0.512-0.542c0.214-0.139,0.466-0.238,0.756-0.298
		c0.289-0.059,0.597-0.089,0.922-0.089h0.297v-0.547c0-0.484-0.085-0.817-0.256-1c-0.171-0.182-0.411-0.274-0.72-0.274
		c-0.286,0-0.524,0.062-0.714,0.184c-0.19,0.123-0.341,0.232-0.452,0.327l-0.405-0.643c0.063-0.063,0.145-0.135,0.244-0.214
		c0.099-0.079,0.22-0.155,0.363-0.226c0.143-0.071,0.305-0.131,0.488-0.179s0.389-0.071,0.619-0.071
		c0.587,0,1.031,0.163,1.333,0.488s0.452,0.849,0.452,1.571v2.606c0,0.246,0.008,0.486,0.024,0.72
		c0.016,0.234,0.032,0.391,0.048,0.47h-0.916l-0.036-0.631h-0.024c-0.032,0.071-0.079,0.153-0.143,0.244
		c-0.063,0.091-0.143,0.175-0.238,0.25c-0.095,0.075-0.21,0.141-0.345,0.196c-0.135,0.055-0.293,0.083-0.476,0.083
		c-0.214,0-0.414-0.04-0.601-0.119c-0.187-0.079-0.349-0.19-0.488-0.333c-0.139-0.143-0.246-0.311-0.321-0.506
		C100.916,82.445,100.878,82.233,100.878,82.003z M102.603,82.776c0.135,0,0.254-0.02,0.357-0.06
		c0.103-0.04,0.192-0.087,0.268-0.143c0.075-0.055,0.139-0.117,0.19-0.185c0.051-0.067,0.097-0.125,0.137-0.173v-1.261l-0.309,0.012
		c-0.46,0.016-0.809,0.095-1.047,0.238s-0.357,0.373-0.357,0.69c0,0.294,0.067,0.514,0.202,0.66
		C102.179,82.703,102.365,82.776,102.603,82.776z M108.399,78.528h-1.249v3.165c0,0.405,0.052,0.68,0.155,0.827
		c0.103,0.147,0.278,0.22,0.524,0.22c0.143,0,0.266-0.02,0.369-0.06c0.103-0.04,0.178-0.075,0.226-0.107l0.131,0.773
		c-0.04,0.032-0.135,0.081-0.286,0.149c-0.151,0.067-0.353,0.101-0.607,0.101c-0.492,0-0.861-0.137-1.107-0.411
		c-0.246-0.274-0.369-0.728-0.369-1.362v-3.296h-0.69v-0.643l0.69-0.143l0.107-1.595h0.857v1.595h1.368L108.399,78.528z
		 M113.075,79.67c0,0.246-0.008,0.458-0.024,0.637s-0.032,0.335-0.048,0.47h-2.915c0.032,0.674,0.176,1.17,0.434,1.488
		c0.258,0.317,0.629,0.476,1.113,0.476c0.167,0,0.317-0.02,0.452-0.06s0.252-0.087,0.351-0.143c0.099-0.056,0.182-0.111,0.25-0.167
		c0.067-0.055,0.117-0.099,0.149-0.131l0.357,0.678c-0.04,0.04-0.099,0.097-0.178,0.173c-0.079,0.075-0.186,0.151-0.321,0.226
		c-0.135,0.075-0.302,0.141-0.5,0.196c-0.198,0.055-0.432,0.083-0.702,0.083c-0.357,0-0.68-0.06-0.97-0.178
		c-0.29-0.119-0.535-0.303-0.738-0.553s-0.359-0.567-0.47-0.952c-0.111-0.385-0.167-0.847-0.167-1.386
		c0-0.508,0.058-0.946,0.173-1.315c0.115-0.369,0.272-0.672,0.47-0.91c0.198-0.238,0.428-0.414,0.69-0.53
		c0.262-0.115,0.543-0.173,0.845-0.173c0.547,0,0.976,0.173,1.285,0.518C112.921,78.462,113.075,78.98,113.075,79.67z
		 M111.267,78.385c-0.341,0-0.615,0.143-0.821,0.428c-0.206,0.286-0.325,0.698-0.357,1.238h2.082
		c0.008-0.04,0.014-0.097,0.018-0.173c0.004-0.075,0.006-0.157,0.006-0.244c0-0.397-0.079-0.704-0.238-0.922
		C111.798,78.494,111.568,78.385,111.267,78.385z M122.143,83.455h-1.142l-0.738-2.63h-2.487l-0.75,2.63h-1.047l2.677-8.211h0.809
		L122.143,83.455z M120.037,80.039l-0.643-2.249c-0.087-0.301-0.163-0.589-0.226-0.863s-0.099-0.502-0.107-0.684h-0.024
		c-0.008,0.182-0.046,0.407-0.113,0.672c-0.067,0.266-0.145,0.549-0.232,0.851l-0.678,2.273H120.037z M126.13,78.849
		c-0.024-0.024-0.062-0.059-0.113-0.107c-0.052-0.048-0.117-0.095-0.196-0.143c-0.079-0.048-0.175-0.089-0.286-0.125
		c-0.111-0.036-0.238-0.053-0.381-0.053c-0.206,0-0.399,0.038-0.577,0.113c-0.178,0.075-0.333,0.196-0.464,0.363
		c-0.131,0.167-0.234,0.383-0.309,0.649c-0.075,0.266-0.113,0.589-0.113,0.97c0,0.421,0.034,0.773,0.101,1.059
		c0.067,0.286,0.161,0.514,0.28,0.684c0.119,0.171,0.264,0.294,0.434,0.369c0.171,0.075,0.359,0.113,0.565,0.113
		c0.293,0,0.518-0.052,0.672-0.155c0.155-0.103,0.264-0.186,0.327-0.25l0.393,0.666c-0.04,0.048-0.097,0.105-0.173,0.173
		c-0.075,0.068-0.173,0.133-0.292,0.196c-0.119,0.063-0.264,0.117-0.434,0.161c-0.171,0.044-0.367,0.065-0.589,0.065
		c-0.317,0-0.615-0.052-0.893-0.155c-0.278-0.103-0.52-0.274-0.726-0.512s-0.369-0.547-0.488-0.928
		c-0.119-0.381-0.179-0.853-0.179-1.416c0-0.547,0.071-1.012,0.214-1.392s0.329-0.688,0.559-0.922
		c0.23-0.234,0.486-0.405,0.768-0.512c0.282-0.107,0.565-0.161,0.851-0.161c0.214,0,0.403,0.02,0.565,0.06
		c0.163,0.04,0.301,0.089,0.417,0.149c0.115,0.06,0.21,0.123,0.286,0.19c0.075,0.068,0.137,0.125,0.184,0.173L126.13,78.849z
		 M129.985,78.528h-1.25v3.165c0,0.405,0.052,0.68,0.155,0.827c0.103,0.147,0.278,0.22,0.524,0.22c0.143,0,0.266-0.02,0.369-0.06
		c0.103-0.04,0.178-0.075,0.226-0.107l0.131,0.773c-0.04,0.032-0.135,0.081-0.286,0.149c-0.151,0.067-0.353,0.101-0.607,0.101
		c-0.492,0-0.861-0.137-1.107-0.411c-0.246-0.274-0.369-0.728-0.369-1.362v-3.296h-0.69v-0.643l0.69-0.143l0.107-1.595h0.857v1.595
		h1.369L129.985,78.528z M132.044,83.455h-0.964v-5.712h0.964V83.455z M131.568,76.362c-0.198,0-0.357-0.063-0.476-0.19
		c-0.119-0.127-0.178-0.294-0.178-0.5c0-0.198,0.06-0.361,0.178-0.488c0.119-0.127,0.278-0.19,0.476-0.19
		c0.19,0,0.345,0.063,0.464,0.19c0.119,0.127,0.178,0.29,0.178,0.488c0,0.206-0.06,0.373-0.178,0.5
		C131.913,76.299,131.758,76.362,131.568,76.362z M133.258,80.599c0-0.524,0.062-0.976,0.185-1.357
		c0.123-0.381,0.289-0.692,0.5-0.934c0.21-0.242,0.452-0.421,0.726-0.536c0.274-0.115,0.565-0.173,0.875-0.173
		c0.317,0,0.611,0.057,0.881,0.173c0.27,0.115,0.504,0.294,0.702,0.536c0.198,0.242,0.355,0.553,0.47,0.934
		c0.115,0.381,0.173,0.833,0.173,1.357c0,0.531-0.059,0.988-0.178,1.368c-0.119,0.381-0.284,0.692-0.494,0.934
		c-0.21,0.242-0.454,0.419-0.732,0.53c-0.278,0.111-0.571,0.167-0.881,0.167c-0.317,0-0.611-0.055-0.881-0.167
		s-0.504-0.288-0.702-0.53c-0.198-0.242-0.355-0.551-0.47-0.928C133.315,81.596,133.258,81.138,133.258,80.599z M136.768,80.599
		c0-0.762-0.111-1.315-0.333-1.66c-0.222-0.345-0.532-0.518-0.928-0.518s-0.704,0.173-0.922,0.518
		c-0.218,0.345-0.327,0.898-0.327,1.66c0,0.762,0.111,1.309,0.333,1.642c0.222,0.333,0.531,0.5,0.928,0.5s0.704-0.167,0.922-0.5
		C136.659,81.908,136.768,81.36,136.768,80.599z M142.099,83.455v-3.677c0-0.484-0.081-0.831-0.244-1.041
		c-0.163-0.21-0.411-0.315-0.744-0.315c-0.286,0-0.524,0.071-0.714,0.214s-0.341,0.282-0.452,0.416v4.403h-0.964v-5.712h0.881v0.643
		h0.024c0.024-0.048,0.075-0.117,0.155-0.208c0.079-0.091,0.182-0.178,0.309-0.262c0.127-0.083,0.278-0.157,0.452-0.22
		s0.373-0.095,0.595-0.095c0.254,0,0.484,0.038,0.69,0.113c0.206,0.075,0.381,0.196,0.524,0.363
		c0.143,0.167,0.254,0.383,0.333,0.648c0.079,0.266,0.119,0.593,0.119,0.982v3.748H142.099z"/>
</g>
</svg>
