<svg width="2211" height="951" xmlns="http://www.w3.org/2000/svg" xmlns:xlink="http://www.w3.org/1999/xlink" xml:space="preserve" overflow="hidden"><defs><clipPath id="clip0"><rect x="2058" y="475" width="2211" height="951"/></clipPath></defs><g clip-path="url(#clip0)" transform="translate(-2058 -475)"><path d="M0 0 0.000360892 324.251" stroke="#D9D9D9" stroke-width="4.58333" stroke-linejoin="round" stroke-miterlimit="10" fill="none" fill-rule="evenodd" transform="matrix(1 0 0 -1 2686.5 1252.75)"/><path d="M0 0 997.422 882.244" stroke="#D9D9D9" stroke-width="4.58333" stroke-linejoin="round" stroke-miterlimit="10" fill="none" fill-rule="evenodd" transform="matrix(1 0 0 -1 2196.5 1359.74)"/><path d="M0 0 2069.47 217.384" stroke="#D9D9D9" stroke-width="4.58333" stroke-linejoin="round" stroke-miterlimit="10" fill="none" fill-rule="evenodd" transform="matrix(1 0 0 -1 2196.5 1359.88)"/><path d="M0 0 2069.47 879.938" stroke="#D9D9D9" stroke-width="4.58333" stroke-linejoin="round" stroke-miterlimit="10" fill="none" fill-rule="evenodd" transform="matrix(1 0 0 -1 2196.5 1359.44)"/><path d="M0 0 996.068 218.995" stroke="#D9D9D9" stroke-width="4.58333" stroke-linejoin="round" stroke-miterlimit="10" fill="none" fill-rule="evenodd" transform="matrix(1 0 0 -1 2196.5 1359.49)"/><rect x="3191.5" y="480.5" width="1075" height="662" stroke="#D9D9D9" stroke-width="4.58333" stroke-linejoin="round" stroke-miterlimit="10" fill="none"/><path d="M0 0 64.3309 124.69" stroke="#000000" stroke-width="4.58333" stroke-linejoin="round" stroke-miterlimit="10" fill="none" fill-rule="evenodd" transform="matrix(1 0 0 -1 3414.5 998.19)"/><path d="M0 0 129.799 19.9956" stroke="#000000" stroke-width="4.58333" stroke-linejoin="round" stroke-miterlimit="10" fill="none" fill-rule="evenodd" transform="matrix(-1 0 0 1 3544.3 977.5)"/><path d="M3477.5 873.5 3540.21 929.416" stroke="#000000" stroke-width="4.58333" stroke-linejoin="round" stroke-miterlimit="10" fill="none" fill-rule="evenodd"/><path d="M3540.5 929.5 3540.5 978.28" stroke="#000000" stroke-width="4.58333" stroke-linejoin="round" stroke-miterlimit="10" fill="none" fill-rule="evenodd"/><path d="M0 0 42.4583 82.2957" stroke="#000000" stroke-width="4.58333" stroke-linejoin="round" stroke-miterlimit="10" fill="none" fill-rule="evenodd" transform="matrix(1 0 0 -1 3465.5 852.796)"/><path d="M3507.5 771.5 3548.89 839.642" stroke="#000000" stroke-width="4.58333" stroke-linejoin="round" stroke-miterlimit="10" fill="none" fill-rule="evenodd"/><path d="M0 0 85.6672 13.1971" stroke="#000000" stroke-width="4.58333" stroke-linejoin="round" stroke-miterlimit="10" fill="none" fill-rule="evenodd" transform="matrix(-1 0 0 1 3551.17 839.5)"/><path d="M3507.5 770.5 3548.89 807.404" stroke="#000000" stroke-width="4.58333" stroke-linejoin="round" stroke-miterlimit="10" fill="none" fill-rule="evenodd"/><path d="M3548.5 807.5 3548.5 839.694" stroke="#000000" stroke-width="4.58333" stroke-linejoin="round" stroke-miterlimit="10" fill="none" fill-rule="evenodd"/><path d="M0 0 32.1656 62.3452" stroke="#000000" stroke-width="4.58333" stroke-linejoin="round" stroke-miterlimit="10" fill="none" fill-rule="evenodd" transform="matrix(1 0 0 -1 3554.5 917.845)"/><path d="M3586.5 856.5 3617.86 908.123" stroke="#000000" stroke-width="4.58333" stroke-linejoin="round" stroke-miterlimit="10" fill="none" fill-rule="evenodd"/><path d="M0 0 64.8996 9.9978" stroke="#000000" stroke-width="4.58333" stroke-linejoin="round" stroke-miterlimit="10" fill="none" fill-rule="evenodd" transform="matrix(-1 0 0 1 3619.4 908.5)"/><path d="M3586.5 855.5 3617.86 883.458" stroke="#000000" stroke-width="4.58333" stroke-linejoin="round" stroke-miterlimit="10" fill="none" fill-rule="evenodd"/><path d="M3617.5 883.5 3617.5 907.89" stroke="#000000" stroke-width="4.58333" stroke-linejoin="round" stroke-miterlimit="10" fill="none" fill-rule="evenodd"/><path d="M0 0 23.4006 45.3566" stroke="#000000" stroke-width="4.58333" stroke-linejoin="round" stroke-miterlimit="10" fill="none" fill-rule="evenodd" transform="matrix(1 0 0 -1 2920.5 1069.86)"/><path d="M0 0 47.2148 7.27343" stroke="#000000" stroke-width="4.58333" stroke-linejoin="round" stroke-miterlimit="10" fill="none" fill-rule="evenodd" transform="matrix(-1 0 0 1 2967.71 1062.5)"/><path d="M0 0 38.435 74.4979" stroke="#000000" stroke-width="4.58333" stroke-linejoin="round" stroke-miterlimit="10" fill="none" fill-rule="evenodd" transform="matrix(1 0 0 -1 2889.5 1154)"/><path d="M22.51 4.88589 1309.96 422.113 1308.54 426.473 21.097 9.24598ZM21.9216 21.5582 0 0 30.3995-4.60232Z" fill="#92A2BD" transform="matrix(-1 0 0 1 3479.75 945.5)"/><path d="M22.0657 6.60833 1337.17 548.169 1335.42 552.407 20.3205 10.8464ZM20.1926 23.1856 0 0 30.664-2.24274Z" fill="#92A2BD" transform="matrix(-1 0 0 1 3506.79 819.5)"/><path d="M2943.5 1024.5 2966.31 1062.06" stroke="#000000" stroke-width="4.58333" stroke-linejoin="round" stroke-miterlimit="10" fill="none" fill-rule="evenodd"/><path d="M0 0 77.55 11.9466" stroke="#000000" stroke-width="4.58333" stroke-linejoin="round" stroke-miterlimit="10" fill="none" fill-rule="evenodd" transform="matrix(-1 0 0 1 2967.05 1142.5)"/><path d="M2927.5 1080.5 2964.97 1142.19" stroke="#000000" stroke-width="4.58333" stroke-linejoin="round" stroke-miterlimit="10" fill="none" fill-rule="evenodd"/><path d="M2686.5 928.5 3212.34 928.5" stroke="#D9D9D9" stroke-width="4.58333" stroke-linejoin="round" stroke-miterlimit="10" fill="none" fill-rule="evenodd"/><path d="M0 0 525.835 0.000360892" stroke="#D9D9D9" stroke-width="4.58333" stroke-linejoin="round" stroke-miterlimit="10" fill="none" fill-rule="evenodd" transform="matrix(-1 0 0 1 3212.34 1252.5)"/><text fill="#92A2BD" font-family="Arial,Arial_MSFontService,sans-serif" font-weight="400" font-size="64" transform="matrix(0.951056 -0.309017 0.309017 0.951056 3049.52 1143)">primary</text><text fill="#92A2BD" font-family="Arial,Arial_MSFontService,sans-serif" font-weight="400" font-size="64" transform="matrix(0.951056 -0.309017 0.309017 0.951056 3269.11 1071)">rays</text><path d="M0 0 0.000360892 324.251" stroke="#D9D9D9" stroke-width="4.58333" stroke-linejoin="round" stroke-miterlimit="10" fill="none" fill-rule="evenodd" transform="matrix(1 0 0 -1 3212.5 1252.75)"/><path d="M3233.5 783.5 3233.5 832.989" stroke="#000000" stroke-width="4.58333" stroke-linejoin="round" stroke-miterlimit="10" fill="none" fill-rule="evenodd"/><path d="M3233.5 589.5 3233.5 638.989" stroke="#000000" stroke-width="4.58333" stroke-linejoin="round" stroke-miterlimit="10" fill="none" fill-rule="evenodd"/><path d="M3305.5 711.5 3354.99 711.5" stroke="#000000" stroke-width="4.58333" stroke-linejoin="round" stroke-miterlimit="10" fill="none" fill-rule="evenodd"/><path d="M3112.5 711.5 3161.99 711.5" stroke="#000000" stroke-width="4.58333" stroke-linejoin="round" stroke-miterlimit="10" fill="none" fill-rule="evenodd"/><path d="M3179.5 711C3179.5 680.901 3203.9 656.5 3234 656.5 3264.1 656.5 3288.5 680.901 3288.5 711 3288.5 741.1 3264.1 765.5 3234 765.5 3203.9 765.5 3179.5 741.1 3179.5 711Z" stroke="#000000" stroke-width="4.58333" stroke-linejoin="round" stroke-miterlimit="10" fill="#FFFFFF" fill-rule="evenodd"/><path d="M3284.17 761.525 3319.16 796.52" stroke="#000000" stroke-width="4.58333" stroke-linejoin="round" stroke-miterlimit="10" fill="none" fill-rule="evenodd"/><path d="M3147.47 624.828 3182.47 659.823" stroke="#000000" stroke-width="4.58333" stroke-linejoin="round" stroke-miterlimit="10" fill="none" fill-rule="evenodd"/><path d="M0 0 49.4895 0.000360892" stroke="#000000" stroke-width="4.58333" stroke-linejoin="round" stroke-miterlimit="10" fill="none" fill-rule="evenodd" transform="matrix(-0.707107 0.707107 0.707107 0.707107 3182.47 761.525)"/><path d="M0 0 49.4895 0.000360892" stroke="#000000" stroke-width="4.58333" stroke-linejoin="round" stroke-miterlimit="10" fill="none" fill-rule="evenodd" transform="matrix(-0.707107 0.707107 0.707107 0.707107 3319.16 624.828)"/><path d="M3508.92 817.7 3570 865.856 3567.17 869.455 3506.08 821.3ZM3573.5 854.02 3586.58 881.843 3556.47 875.616Z" fill="#8BA68A"/><text fill="#8BA68A" font-family="Arial,Arial_MSFontService,sans-serif" font-weight="400" font-size="64" transform="matrix(0.927184 -0.374607 0.374607 0.927184 3577.96 855)">reflected</text><text fill="#8BA68A" font-family="Arial,Arial_MSFontService,sans-serif" font-weight="400" font-size="64" transform="matrix(0.927184 -0.374607 0.374607 0.927184 3821.78 757)">ray</text><path d="M0.127913-2.28809 298.517 14.393 298.261 18.9691-0.127913 2.28809ZM294.58 2.69665 321.27 17.9602 293.045 30.1538Z" fill="#FEA466" transform="matrix(1 0 0 -1 3484.5 945.46)"/><path d="M3477.5 874.5 3540.21 977.745" stroke="#000000" stroke-width="4.58333" stroke-linejoin="round" stroke-miterlimit="10" fill="none" fill-rule="evenodd"/><text fill="#FEA466" font-family="Arial,Arial_MSFontService,sans-serif" font-weight="400" font-size="64" transform="matrix(0.998897 -0.0469478 0.0469478 0.998897 3559.8 1012)">refracted</text><text fill="#FEA466" font-family="Arial,Arial_MSFontService,sans-serif" font-weight="400" font-size="64" transform="matrix(0.998897 -0.0469478 0.0469478 0.998897 3829.35 1000)">ray</text><path d="M2059.94 1357.85C2055.36 1344.3 2062.57 1329.62 2076.05 1325.07 2089.53 1320.52 2104.16 1327.82 2108.74 1341.38 2113.32 1354.93 2106.1 1369.61 2092.63 1374.16 2079.15 1378.71 2064.51 1371.41 2059.94 1357.85Z" fill-rule="evenodd"/><path d="M2107.26 1341.88C2102.68 1328.32 2109.89 1313.64 2123.37 1309.09 2136.85 1304.54 2151.48 1311.84 2156.06 1325.4 2160.64 1338.95 2153.42 1353.63 2139.95 1358.18 2126.47 1362.73 2111.83 1355.43 2107.26 1341.88Z" fill-rule="evenodd"/><path d="M2066.56 1378.83 2163.5 1346.09 2179.18 1392.53 2082.24 1425.26Z" fill-rule="evenodd"/><path d="M2169.85 1359.85 2189.67 1337.41 2199.31 1365.76Z" fill-rule="evenodd"/><path d="M2175.9 1377.78 2195.72 1355.33 2205.36 1383.69Z" fill-rule="evenodd"/><path d="M0 25.9045 15.0249 0 30.0497 25.9045Z" fill-rule="evenodd" transform="matrix(-0.660557 0.750776 0.750776 0.660557 2175.56 1344.23)"/><path d="M3234.58 716.48 3556.08 888.685 3553.92 892.726 3232.42 720.52ZM3557.45 876.421 3575.2 901.526 3544.47 900.662Z" fill="#FECB00"/><path d="M0.708167-2.1795 552.265 177.033 550.849 181.392-0.708167 2.1795ZM551.447 164.719 573.352 186.294 542.949 190.873Z" fill="#FECB00" transform="matrix(-1 0 0 1 3570.85 901.5)"/><text fill="#FFC000" font-family="Arial,Arial_MSFontService,sans-serif" font-weight="400" font-size="64" transform="matrix(0.951056 -0.309017 0.309017 0.951056 3138.53 1024)">light </text><text fill="#FFC000" font-family="Arial,Arial_MSFontService,sans-serif" font-weight="400" font-size="64" transform="matrix(0.951056 -0.309017 0.309017 0.951056 3267.12 982)">rays</text></g></svg>